<svg width="512" height="512" viewBox="0 0 512 512" fill="none" xmlns="http://www.w3.org/2000/svg">
<g clip-path="url(#clip0_5628_1849)">
<path fill-rule="evenodd" clip-rule="evenodd" d="M416 29L418.5 32C419.9 33.6 421 35.7 421 36.5C421 37.3 420.4 39.1 419.7 40.5C419.1 41.9 417.5 43.4 416.2 44C414.8 44.6 380.1 45 317.7 45C226.7 45 221.1 45.1 214 46.9C209.9 47.9 204 50 201 51.5C198 53 192.7 56.2 189.3 58.6C185.8 61 180.7 65.8 178 69.3C175.2 72.7 171.1 79.1 168.9 83.5C166.8 87.9 164.3 94.6 163.5 98.5C162.3 104.2 162 116.3 162 162.5C162 208.6 162.3 220.8 163.5 226.5C164.3 230.3 167.1 237.8 169.7 243C173.4 250.6 175.8 254 182 260C186.1 264.1 192.2 269.1 195.5 271C198.8 272.9 204.2 275.5 207.5 276.6C210.8 277.8 217 279.3 221.3 279.9C226.1 280.6 248.6 281 333 281L335.8 283.8C337.3 285.3 348.9 298.4 361.6 313C378.1 332 385.8 340 388.6 341.4C391.2 342.6 393.9 343.1 396.5 342.8C398.7 342.6 402 341.3 403.9 339.9C405.8 338.6 408.2 335.7 409.2 333.5C410.7 330 411 326.4 411 307.3C411 287.4 411.2 284.8 412.7 283.2C414.2 281.7 416.8 281.3 427 280.7C433.9 280.3 442.2 279.3 445.5 278.4C448.8 277.6 454.6 275.3 458.5 273.5C462.3 271.6 468.1 268 471.2 265.5C474.4 263 479 258.4 481.6 255.3C484.1 252.1 487.9 245.9 490 241.5C492.1 237.1 494.6 229.9 495.5 225.5C496.9 218.6 497 209.5 496.5 100.5L493.7 92.5C492.1 88.1 489.6 82.3 488 79.5C486.4 76.8 483.4 72.4 481.3 69.9C479.2 67.4 475 63.2 472 60.6C469 58.1 463.6 54.4 460 52.5C456.4 50.7 450.6 48.4 447 47.4C443.4 46.4 439.5 44.7 438.2 43.6C436.9 42.4 436 40.4 436 38.8C436 37.2 437.1 34.9 438.5 33.5C439.8 32.1 441.8 31 443 31C444.1 31 449.2 32.3 454.2 34C459.3 35.6 466.3 38.6 469.7 40.7C473.2 42.8 478.6 46.5 481.7 49C484.8 51.5 490.1 56.9 493.4 61C496.7 65.1 501.4 72.8 503.8 78C506.7 84.1 509 90.9 510.2 97C512 105.8 512.1 110.6 511.8 166.5C511.4 225 511.4 226.7 509.2 233.8C508 237.7 506 243.4 504.7 246.3C503.4 249.1 500.6 254.2 498.4 257.5C496.3 260.8 492 266.1 489 269.4C486 272.6 480.8 277.2 477.5 279.5C474.2 281.9 468.8 285.1 465.5 286.8C462.2 288.4 456.3 290.7 452.5 291.9C448.6 293.1 441.1 294.6 426.1 296.5L425.8 315.5C425.5 333.2 425.3 334.9 423 339.9C421.6 342.9 418.5 347.2 416 349.5C413.4 351.9 408.9 354.6 405.5 355.9C400.8 357.7 398.1 358.1 393 357.8C388.3 357.5 385 356.5 381.1 354.4C378.1 352.8 373.4 348.9 365.1 339.5L364.5 345.5C364.1 348.8 363.2 354.2 362.3 357.5C361.5 360.8 359.4 366.6 357.6 370.5C355.8 374.3 352.6 380.2 350.3 383.5C348.1 386.8 343.6 392.1 340.4 395.4C337.1 398.6 332 402.9 329 405C326 407 321.2 409.8 318.5 411.2C315.7 412.6 310.6 414.7 307 415.8C303.4 417 297.6 418.4 294 419C290.2 419.6 266.6 420 185.5 419.9L163 445.6C150.6 459.7 138.5 473 136 475.2C133.4 477.4 129 479.9 125.5 481C122.2 482.1 118.4 483 117 483C115.6 483 112 482.2 109 481.2C106 480.2 101.7 478.2 99.5 476.7C97.3 475.3 94.3 472.4 92.8 470.3C91.3 468.2 89.3 464.7 88.3 462.5C86.9 459.3 86.5 454.9 85.8 420.5L77.7 419.8C73.2 419.4 65.6 417.9 60.7 416.5C55.9 415.1 49.6 412.8 46.7 411.4C43.9 409.9 38.8 406.9 35.5 404.5C32.2 402.2 26.3 396.9 22.5 392.8C18.6 388.6 14 382.8 12.3 379.9C10.5 376.9 7.9 371.8 6.6 368.5C5.2 365.2 3.5 360 2.7 357C1.5 352.6 1.5 350.9 2.4 348.5C3.1 346.8 4.8 345.1 6.3 344.5C8.1 343.833 9.9 343.833 11.7 344.5C13.9 345.3 14.9 346.7 16.2 351C17.2 354 19 359 20.1 362C21.3 365 24.2 370.4 26.5 374C28.9 377.6 33.8 383.4 37.6 386.8C42.3 391.1 47.4 394.6 53.5 397.6C58.8 400.1 65.7 402.6 70.2 403.5C74.5 404.3 81.9 405 86.7 405C94 404.9 96 405.3 101 409L101.2 432.9C101.5 455.4 101.6 457 103.6 459.7C104.7 461.2 107.2 463.5 109.1 464.8C111.3 466.3 114 467 116.7 467C119.1 467 122.3 466.3 124 465.5C125.6 464.7 138.1 451.3 151.7 435.8C165.3 420.2 177.1 407 178 406.3C179.1 405.4 194.6 405 294.5 404.5L302.5 401.7C306.9 400.1 313.6 396.9 317.5 394.5C321.3 392.2 327.6 386.9 331.5 382.8C335.9 378.2 339.9 372.6 342.3 367.9C344.3 363.8 346.9 356.9 348 352.5C349.4 346.9 350 341.2 350 322.5L327 296L272.7 295.7C225.8 295.4 217.6 295.1 212 293.6C208.4 292.7 202.6 290.8 199 289.4C195.4 288 189.3 284.7 185.5 282.2C181.6 279.7 175.9 275.2 172.6 272.1C169.4 269 164.8 263.8 162.5 260.5C160.2 257.2 157.1 252.3 155.7 249.5C154.4 246.8 152 240.7 150.4 236C147.7 227.6 147.6 227.2 147 169L70.5 169.5L62 172.5C57.3 174.1 50.3 177.5 46.5 180.1C42.6 182.6 37 187.4 34 190.6C30.9 193.8 26.8 199.2 24.8 202.5C22.8 205.8 19.9 212.1 15.5 224.5L14.5 325.2L12 327.1C10.6 328.2 8.5 329.1 7.2 329C6 329 3.9 327.9 0 324V277.3C0 248.8 0.4 228.1 1 224.5C1.6 221.2 3 215.6 4.2 212C5.3 208.4 7.5 203 9.1 200C10.6 197 13.3 192.5 14.9 190C16.6 187.5 20.8 182.6 24.2 179.1C27.7 175.6 33.2 170.9 36.5 168.7C39.8 166.5 45.6 163.2 49.5 161.4C53.3 159.7 59.4 157.4 63 156.4C68.6 154.9 74.6 154.6 147 154V129.5C147 112.5 147.4 102.8 148.4 97.8C149.2 93.8 151.1 87.1 152.6 83C154.2 78.9 158 71.7 161.1 67C164.2 62.3 169.4 56 172.7 53C175.9 50 181.2 45.7 184.5 43.5C187.8 41.3 193.9 38.1 198 36.3C202.1 34.6 209.8 32.2 215 31.1C224 29.3 229.4 29.2 416 29ZM328.5 90.1C330.1 90 334.2 90.5 337.5 91.1C340.8 91.7 346.4 93.5 350 95.2C354.4 97.2 358.5 100.2 362.6 104.3C366.3 108.1 369.9 113.1 371.8 117C373.5 120.6 375.5 126.6 376.1 130.5C377 135.9 377 139.2 376 145C375.2 149.2 373.3 155.3 371.4 159C369.3 163.2 366 167.6 361.8 171.5C358.4 174.8 353 178.7 350 180.2C347 181.6 342.8 183.1 337 184V193.3C337.1 200.9 336.8 202.9 335.1 205C333.7 206.9 332.2 207.5 329.5 207.5C326.8 207.5 325.3 206.9 323.9 205C322.2 202.8 321.9 200.9 321.9 189C321.9 177 322.1 175.2 323.9 173.1C325.4 171.3 327.4 170.5 332.2 169.8C335.7 169.3 340.3 168.1 342.5 167.2C344.7 166.2 348.7 163.4 351.3 160.9C354 158.5 357.2 154.3 358.5 151.5C359.8 148.8 361.2 144.3 361.5 141.5C362 138.1 361.7 134.5 360.6 130.3C359.7 126.8 357.6 122 356 119.5C354.3 117 351.5 113.9 349.7 112.6C348 111.2 344.2 109.1 341.5 107.9C338 106.3 334.5 105.6 330 105.6C326.4 105.6 321.2 106.3 318.5 107.2C315.7 108.2 311.3 110.9 308.6 113.2C305.9 115.6 302.7 119.3 301.4 121.5C300.1 123.7 298.4 129.1 297.6 133.5C296.5 139.6 295.6 141.9 293.8 143.3C292.5 144.3 290.5 145.1 289.2 145C288 145 285.9 143.9 284.5 142.5C282.7 140.7 282 138.9 282 136.3C282 134.2 282.7 129.9 283.5 126.8C284.3 123.6 286.2 118.6 287.7 115.8C289.1 112.9 292.7 108 295.5 105C298.4 102 303.6 98 307.1 96.1C310.6 94.2 316.2 92.1 319.5 91.4C322.8 90.7 326.8 90.1 328.5 90.1ZM329.5 222C330.9 222 333.1 223.1 334.5 224.5C335.9 225.9 337 227.9 337 229C337 230.1 336.4 232.1 335.7 233.5C335.1 234.9 333.3 236.5 331.7 237C329.8 237.7 328.2 237.6 326.2 236.6C324.7 235.9 323.2 234.5 322.7 233.6C322.3 232.7 322 230.9 322 229.5C322.1 228.1 323.2 225.8 324.5 224.5C325.8 223.1 328.1 222 329.5 222ZM147.7 315C150.1 315 151.5 315.7 153 317.8C154.2 319.3 155.1 321.5 155 322.8C155 324 153.9 326.1 152.5 327.5C151.2 328.9 148.9 330 147.5 330C146.1 330 143.9 328.9 142.5 327.5C141.1 326.1 139.9 323.8 139.8 322.3C139.7 320.6 140.5 318.8 142 317.3C143.5 315.8 145.5 315 147.7 315ZM183.6 315C185.7 315 187.8 315.8 189 317C190.2 318.2 191 320.3 191 322.5C191 325.2 190.3 326.5 188.3 328C186.7 329.2 184.5 330.1 183.3 330C182 330 179.9 328.9 178.5 327.5C177.1 326.1 176 323.9 175.9 322.6C175.8 321.3 176.8 319.1 178 317.6C179.5 315.7 181.1 315 183.6 315ZM217.6 315C219.7 315 221.8 315.8 223 317C224.2 318.2 225 320.3 225 322.3C225 324.2 224.1 326.4 222.7 327.8C221.5 329.1 219.3 330 217.8 330C216.2 330 213.9 328.9 212.5 327.5C211.1 326.1 210 323.9 209.9 322.6C209.8 321.3 210.8 319.1 212 317.6C213.5 315.7 215.1 315 217.6 315Z" fill="black" stroke="black" stroke-width="4"/>
</g>
<defs>
<clipPath id="clip0_5628_1849">
<rect width="512" height="512" fill="white"/>
</clipPath>
</defs>
</svg>
