<svg width="512" height="511" viewBox="0 0 512 511" fill="none" xmlns="http://www.w3.org/2000/svg">
<path fill-rule="evenodd" clip-rule="evenodd" d="M125.304 0.105215C128.75 0.418423 133.867 1.77566 136.79 3.13289C139.714 4.59453 144.204 8.03982 147.023 11.2763C149.738 14.304 152.766 18.8977 153.602 21.5078C154.437 24.1178 155.481 30.2776 156.63 44.4764H312.738V35.6021C312.738 29.0248 313.364 25.1619 315.035 20.6726C316.497 16.9141 319.003 13.0512 322.031 10.0235C324.641 7.41341 329.131 4.17692 332.055 2.71528C336.023 0.836034 339.051 0.209617 345.108 0.209617C351.373 0.105215 354.088 0.627229 358.682 2.81969C361.815 4.28132 366.305 7.309 368.498 9.60586C370.795 11.7983 373.823 16.2876 375.285 19.4197C377.373 24.0134 378 27.1455 378.522 44.4764H398.362C409.221 44.4764 420.708 44.9984 423.736 45.6248C426.66 46.2512 432.716 48.4437 436.997 50.5317C442.74 53.2462 446.604 56.1695 451.511 61.0764C455.897 65.6701 459.343 70.4727 461.536 75.2752C463.415 79.2425 465.504 85.089 466.13 88.1167C466.966 91.7708 467.279 125.284 467.279 294.521L474.901 301.829C478.974 305.901 484.821 312.478 487.85 316.445C490.878 320.517 495.368 327.721 497.978 332.628C500.589 337.535 504.035 345.783 505.81 350.898C507.48 356.014 509.673 365.724 510.613 372.301C511.97 381.175 512.284 387.126 511.762 395.27C511.344 401.325 510.3 409.468 509.464 413.54C508.629 417.612 506.749 424.398 505.288 428.678C503.826 432.959 500.693 440.267 498.292 444.861C495.89 449.455 491.295 456.763 488.058 461.043C484.926 465.324 479.496 471.692 476.05 475.033C472.709 478.479 466.339 483.907 462.058 487.04C457.777 490.276 450.467 494.87 445.873 497.271C441.278 499.672 433.969 502.804 429.688 504.266C425.406 505.728 418.306 507.607 414.025 508.547C409.744 509.486 401.494 510.426 395.751 510.843C388.442 511.261 381.759 510.843 373.301 509.591C366.723 508.651 357.012 506.458 351.895 504.684C346.778 503.013 338.738 499.672 334.144 497.271C329.549 494.87 322.24 490.276 317.959 487.04C313.677 483.907 306.89 477.957 295.508 466.263H172.293C63.4876 466.263 48.3467 466.055 42.8125 464.593C39.3666 463.758 33.9368 461.774 30.8042 460.208C27.6716 458.746 22.0329 454.57 18.2738 451.021C13.9926 447.053 10.0247 442.042 7.62301 437.448C5.43019 433.481 3.02854 427.008 2.19318 422.936C0.731301 416.568 0.522461 394.748 0.522461 255.37C0.522461 115.992 0.731301 94.1721 2.19318 87.8035C3.02854 83.8362 5.43019 77.2588 7.62301 73.2915C10.0247 68.6978 13.9926 63.6865 18.2738 59.7192C22.0329 56.1695 27.6716 51.9934 30.8042 50.4273C33.9368 48.9657 39.3666 46.982 42.8125 46.0424C47.4069 44.894 54.5075 44.4764 88.7572 44.4764L89.4881 35.3933C89.9058 30.2776 90.95 24.1178 91.7853 21.5078C92.7251 18.8977 95.2312 14.7216 97.424 12.1115C99.6168 9.50146 103.272 6.26498 105.569 4.80334C107.762 3.4461 111.73 1.67126 114.34 0.940437C117.055 0.209617 121.754 -0.207994 125.304 0.105215V0.105215ZM336.859 27.0411C334.77 30.1732 334.666 31.6348 334.666 54.9166C334.666 77.572 334.875 79.6601 336.754 82.8966C338.112 84.9846 340.096 86.5507 342.288 87.0727C344.063 87.5947 346.57 87.8035 347.718 87.5947C348.867 87.3859 350.955 86.1331 352.417 84.7758C353.879 83.523 355.341 80.8085 355.863 78.8249C356.281 76.8412 356.594 66.0877 356.594 54.9166C356.594 43.7456 356.281 32.9921 355.863 31.0084C355.341 29.0248 353.879 26.3103 352.417 25.0575C350.955 23.7002 348.867 22.4474 347.614 22.2386C346.465 22.0298 344.063 22.343 342.288 22.7606C340.513 23.2826 338.112 25.1619 336.859 27.0411V27.0411ZM112.46 28.6072L112.252 81.0173C117.89 86.6551 119.457 87.2815 122.798 87.2815C126.139 87.2815 127.706 86.6551 130.107 84.1494L133.136 81.0173V28.816C127.497 23.1782 125.931 22.5518 122.589 22.5518C119.248 22.5518 117.681 23.1782 115.384 25.5795L112.46 28.6072ZM39.6799 70.7859C38.0092 71.6211 34.3545 74.8576 31.6396 77.9897C28.8202 81.1217 25.792 85.7155 24.9567 88.3255C23.7036 91.7708 23.1816 98.2438 22.8683 112.547L22.4506 132.175H445.351C444.933 93.5457 444.724 91.562 442.427 86.7595C441.069 83.8362 438.563 79.6601 436.684 77.4676C434.7 75.0664 430.627 72.1431 426.66 70.1594L419.872 66.923L379.566 66.4009C379.671 76.528 378.94 82.1658 378.104 85.4023C377.165 88.7431 375.389 93.2325 374.032 95.3205C372.57 97.513 370.168 100.436 368.498 101.898C366.827 103.464 364.216 105.448 362.65 106.387C361.084 107.327 356.803 108.893 353.252 109.832C348.867 110.981 345.003 111.294 341.453 110.772C338.634 110.354 334.352 109.31 332.055 108.266C329.758 107.327 325.686 104.404 322.866 101.793C320.047 99.2878 316.601 94.7985 315.035 91.9796C312.842 87.5947 312.32 85.089 312.111 76.528L311.693 66.4009H156.108C156.108 81.6437 155.586 85.6111 154.02 89.5784C152.871 92.606 150.26 97.0954 148.276 99.4966C145.875 102.42 142.22 105.134 137.626 107.327C131.674 110.25 129.481 110.772 122.694 110.772C116.011 110.772 113.818 110.25 107.866 107.327C103.272 105.134 99.5124 102.42 97.2152 99.4966C95.2312 97.0954 92.6207 92.606 91.4721 89.5784C89.9058 85.6111 89.2793 81.6437 89.2793 75.2752V66.4009C57.9533 66.5054 49.7042 67.0274 46.9893 67.8626C44.692 68.5934 41.455 69.8462 39.6799 70.7859V70.7859ZM22.7639 286.378C22.9727 414.271 23.0771 417.821 25.0611 422.936C26.2097 425.755 29.3423 430.453 31.9528 433.377C34.7721 436.404 39.1578 439.641 42.3948 441.207L48.0335 443.817L280.367 444.339C274.833 431.811 272.327 424.607 271.179 420.326C270.03 416.046 268.568 407.589 267.837 401.534C267.106 394.956 266.897 387.022 267.315 381.697C267.733 376.79 268.777 369.064 269.612 364.471C270.552 359.877 272.432 352.778 273.893 348.81C275.355 344.739 278.488 337.535 280.89 332.628C283.396 327.721 288.199 319.995 291.645 315.401C295.091 310.808 300.938 304.126 304.593 300.681C308.248 297.235 314.304 292.12 317.959 289.301C321.718 286.586 328.818 282.306 333.622 279.905C338.529 277.399 345.839 274.267 349.807 272.805C353.879 271.344 360.875 269.464 365.47 268.525C370.064 267.689 377.896 266.645 382.699 266.228C388.024 265.81 396.065 266.019 402.539 266.854C408.595 267.481 417.053 269.047 421.334 270.091C425.72 271.239 432.82 273.745 437.31 275.728L445.351 279.383V155.143H22.4506L22.7639 286.378ZM365.574 292.224C362.128 293.164 356.176 295.252 352.522 296.818C348.762 298.279 343.124 301.098 339.991 302.978C336.754 304.752 332.577 307.571 330.593 309.033C328.505 310.495 323.91 314.671 320.256 318.22C316.601 321.77 311.589 327.512 309.187 330.957C306.681 334.403 303.027 340.563 301.043 344.53C298.954 348.602 296.344 354.97 295.091 358.624C293.942 362.383 292.48 368.229 291.854 371.675C291.227 375.12 290.705 382.95 290.705 388.901C290.705 394.956 291.227 402.682 291.854 406.127C292.48 409.573 293.942 415.524 295.091 419.178C296.344 422.936 298.954 429.305 301.043 433.272C303.027 437.344 306.681 443.399 309.187 446.844C311.589 450.29 316.601 456.032 320.256 459.686C323.91 463.236 329.236 467.829 332.16 469.918C334.979 472.006 340.826 475.451 345.212 477.643C349.493 479.836 357.012 482.863 361.919 484.429C366.723 485.891 374.972 487.562 380.193 487.979C385.309 488.397 393.976 488.397 399.51 487.979C405.253 487.457 413.085 485.996 418.306 484.429C423.109 482.863 430.419 479.94 434.491 477.957C438.459 475.868 443.889 472.841 446.499 471.066C449.005 469.291 454.644 464.593 458.821 460.521C463.102 456.45 468.532 450.29 471.038 446.844C473.44 443.399 477.094 437.344 479.183 433.272C481.167 429.305 484.09 421.997 485.552 417.09C487.223 411.974 488.685 404.144 489.103 398.297C489.52 392.868 489.52 384.203 489.103 378.983C488.685 373.867 487.119 365.619 485.552 360.712C484.09 355.91 481.167 348.602 479.183 344.53C477.094 340.563 473.44 334.403 471.038 330.957C468.532 327.512 463.729 321.979 460.387 318.638C457.046 315.297 451.511 310.495 448.066 307.989C444.62 305.588 438.459 301.829 434.491 299.845C430.419 297.862 424.049 295.252 420.394 293.999C416.635 292.746 410.788 291.389 407.342 290.867C403.896 290.24 398.466 289.718 395.334 289.51C392.097 289.301 385.518 289.51 380.715 289.823C375.807 290.24 369.02 291.284 365.574 292.224V292.224Z" fill="black"/>
<path fill-rule="evenodd" clip-rule="evenodd" d="M311.693 43.4323V43.4323ZM311.693 43.4323C307.83 44.2676 282.56 44.372 155.586 43.9544L311.693 43.4323ZM311.693 43.4323L312.111 31.426L312.529 36.6462C312.738 39.5694 312.633 42.4927 312.32 43.2235C312.215 43.2235 312.111 43.3279 311.693 43.4323V43.4323ZM72.5721 43.85C82.0743 43.85 86.0422 44.0588 81.4477 44.1632C76.8533 44.372 69.1262 44.372 64.2185 44.1632C59.4152 44.0588 63.1743 43.85 72.5721 43.85ZM396.273 43.85C405.776 43.85 409.744 44.0588 405.149 44.1632C400.555 44.372 392.828 44.372 387.92 44.1632C383.116 44.0588 386.876 43.85 396.273 43.85ZM468.114 146.791C468.219 173.518 468.219 217.681 468.114 244.93C467.905 272.179 467.801 250.359 467.801 196.382C467.801 142.406 467.905 120.064 468.114 146.791ZM175.426 466.785C241.523 466.785 268.255 466.89 234.945 467.099C201.635 467.203 147.65 467.203 114.862 467.099C82.1787 466.89 109.432 466.785 175.426 466.785Z" fill="black" fill-opacity="0.7"/>
<path d="M0.20884 333.672C0.10442 376.999 0 341.815 0 255.37C0 168.924 0.10442 133.427 0.20884 176.546C0.417679 219.56 0.417679 290.345 0.20884 333.672Z" fill="black" fill-opacity="0.3"/>
<path d="M334.352 66.4008C334.248 72.9782 334.039 67.8625 334.039 54.9165C334.039 41.9706 334.248 36.6461 334.352 42.9102C334.561 49.1744 334.561 59.8235 334.352 66.4008Z" fill="black" fill-opacity="0.7"/>
<path d="M81.4475 66.0876C76.853 66.2964 68.9171 66.2964 63.6961 66.0876C58.4751 65.9832 62.3387 65.7744 72.0497 65.7744C81.7607 65.7744 86.042 65.9832 81.4475 66.0876Z" fill="black" fill-opacity="0.7"/>
<path d="M311.693 66.4008L233.691 66.0876L155.586 65.8788H312.215L312.424 78.4072L311.693 66.4008Z" fill="black" fill-opacity="0.7"/>
<path d="M405.149 66.0876C400.554 66.2964 392.827 66.2964 388.024 66.0876H387.92C383.116 65.8788 386.875 65.67 396.273 65.67C405.775 65.67 409.743 65.8788 405.149 66.0876Z" fill="black" fill-opacity="0.7"/>
<path d="M446.29 123.718C446.081 128.625 445.977 124.866 445.977 115.366C445.977 105.969 446.081 101.898 446.29 106.491C446.499 111.085 446.499 118.915 446.29 123.718Z" fill="black" fill-opacity="0.7"/>
<path d="M446.29 247.957C446.081 265.497 445.977 251.611 445.977 217.158C445.977 182.705 446.081 168.402 446.29 185.316C446.499 202.333 446.499 230.522 446.29 247.957Z" fill="black" fill-opacity="0.7"/>
<path d="M224.085 445.07C192.863 445.174 141.802 445.174 110.789 445.07C79.7768 444.861 105.464 444.756 167.698 444.756C230.037 444.756 255.411 444.861 224.085 445.07Z" fill="black" fill-opacity="0.7"/>
<path d="M111.938 66.4008C111.833 72.9782 111.624 67.8625 111.624 54.9165C111.624 41.9706 111.833 36.6461 111.938 42.9102C112.147 49.1744 112.147 59.8235 111.938 66.4008Z" fill="black" fill-opacity="0.3"/>
<path d="M133.866 66.4008C133.761 72.9782 133.553 67.8625 133.553 54.9165C133.553 41.9706 133.761 36.6461 133.866 42.9102C134.075 49.1744 134.075 59.8235 133.866 66.4008Z" fill="black" fill-opacity="0.3"/>
<path d="M340.408 132.905C282.351 133.114 187.016 133.114 128.436 132.905C69.8566 132.801 117.263 132.697 233.9 132.697C350.537 132.697 398.466 132.801 340.408 132.905Z" fill="black" fill-opacity="0.3"/>
<path fill-rule="evenodd" clip-rule="evenodd" d="M100.765 178.216C112.355 178.216 115.592 178.529 119.038 180.095C121.335 181.139 124.677 183.645 126.556 185.524C128.436 187.508 130.629 190.849 131.464 193.041C132.717 195.86 133.135 200.558 133.135 210.79C133.135 222.901 132.822 225.197 130.733 229.791C129.271 232.819 126.661 236.264 124.259 238.143C121.962 239.918 118.516 241.797 116.428 242.528C114.444 243.259 107.343 243.781 100.765 243.886C92.9332 243.886 87.1901 243.364 84.0575 242.424C81.3426 241.484 77.4791 238.979 74.8686 236.369C71.9448 233.445 69.752 230 68.7078 226.659C67.4548 222.692 67.1415 218.307 67.4548 208.389C67.8725 196.382 68.0813 194.921 70.7962 190.431C72.3625 187.612 75.1818 184.272 77.0614 182.914C78.8365 181.557 81.7603 179.991 83.5354 179.365C85.3106 178.738 93.0376 178.216 100.765 178.216ZM89.2785 211.312C89.2785 216.428 89.6962 219.873 90.5316 220.708C91.4713 221.543 94.8128 221.961 100.243 221.961C104.837 221.961 109.223 221.543 109.954 221.126C110.893 220.604 111.102 217.576 110.998 210.477L110.685 200.558C92.4111 200.036 90.4271 200.245 89.905 201.602C89.5918 202.438 89.2785 206.823 89.2785 211.312ZM190.67 178.321C205.498 178.634 206.02 178.738 210.928 181.766C214.373 183.958 216.879 186.673 219.177 190.64C222.309 196.278 222.414 196.696 222.414 209.955C222.414 219.142 221.892 224.884 220.952 227.703C220.116 230 217.924 233.445 216.253 235.429C214.478 237.308 211.136 239.918 208.839 241.171C205.184 243.155 202.992 243.364 189.521 243.364C176.051 243.364 173.859 243.155 170.204 241.171C167.907 239.918 164.565 237.308 162.79 235.429C161.119 233.445 158.926 230 158.091 227.703C157.151 224.884 156.629 219.246 156.629 209.955C156.629 197.635 156.943 195.965 159.135 191.684C160.597 189.074 162.894 185.838 164.356 184.48C165.818 183.123 168.951 181.139 171.248 179.991C174.798 178.321 177.513 178.112 190.67 178.321ZM179.288 212.147L179.602 221.439H199.441V200.558C182.421 200.036 180.019 200.245 179.602 201.394C179.288 202.124 179.184 207.031 179.288 212.147ZM278.278 178.112C290.809 178.112 293.001 178.425 297.596 180.513C300.624 181.975 304.07 184.585 305.95 186.986C307.62 189.283 309.604 192.728 310.335 194.816C311.066 196.8 311.588 203.899 311.693 210.477C311.693 218.307 311.171 224.049 310.231 227.181C309.291 229.896 306.785 233.758 304.174 236.369C301.564 238.979 297.7 241.484 294.985 242.424C291.853 243.364 286.11 243.886 278.278 243.886C271.7 243.781 264.599 243.259 262.615 242.528C260.527 241.797 257.081 239.918 254.784 238.143C252.382 236.264 249.772 232.819 248.31 229.791C246.221 225.197 245.908 222.901 245.908 210.79C245.908 201.602 246.43 195.756 247.266 193.563C248.101 191.684 250.294 188.239 252.278 186.046C254.262 183.75 257.708 181.139 260.005 180.095C263.346 178.529 266.897 178.112 278.278 178.112ZM267.627 211.207C267.836 218.829 268.15 221.021 269.403 221.439C270.238 221.752 274.624 221.961 279.114 221.961C284.23 221.961 287.676 221.439 288.511 220.708C289.347 219.873 289.764 216.219 289.764 211.312C289.764 206.823 289.556 202.438 289.242 201.602C288.825 200.35 286.736 200.036 279.009 200.036C273.579 200.036 268.881 200.35 268.358 200.767C267.836 201.08 267.523 205.779 267.627 211.207ZM368.079 178.216C379.67 178.216 382.907 178.529 386.353 180.095C388.65 181.139 391.991 183.645 393.871 185.524C395.751 187.508 397.943 190.849 398.779 193.041C400.032 195.86 400.449 200.558 400.449 210.79C400.449 222.901 400.136 225.197 398.048 229.791C396.586 232.819 393.975 236.264 391.574 238.143C389.277 239.918 385.831 241.797 383.742 242.528C381.758 243.259 374.658 243.781 368.079 243.886C360.248 243.886 354.505 243.364 351.372 242.424C348.657 241.484 344.794 238.979 342.183 236.369C339.259 233.445 337.067 230 336.022 226.659C334.769 222.692 334.456 218.307 334.769 208.389C335.187 196.382 335.396 194.921 338.111 190.431C339.677 187.612 342.496 184.272 344.376 182.914C346.151 181.557 349.179 179.991 350.85 179.365C352.521 178.738 360.352 178.216 368.079 178.216ZM356.593 211.312C356.593 216.428 357.011 219.873 357.846 220.708C358.786 221.543 362.127 221.961 367.557 221.961C372.152 221.961 376.537 221.543 377.268 221.126C378.208 220.604 378.417 217.576 378.312 210.477L377.999 200.558C359.726 200.036 357.742 200.245 357.22 201.602C356.906 202.438 356.593 206.823 356.593 211.312ZM101.809 267.167C113.922 267.376 116.532 267.794 120.082 269.673C122.38 270.821 125.303 273.014 126.556 274.371C127.809 275.624 129.793 278.86 130.942 281.471C132.717 285.438 133.135 288.257 133.135 300.263C133.135 311.643 132.717 315.193 131.151 318.533C130.107 320.83 127.496 324.276 125.199 326.259C123.006 328.243 119.56 330.435 117.681 331.271C115.488 332.106 109.64 332.628 100.451 332.628C88.3387 332.628 86.0415 332.315 81.447 330.227C78.4189 328.765 74.973 326.155 73.0935 323.754C71.3183 321.457 69.4388 318.011 68.7078 315.923C67.9769 313.94 67.4548 306.84 67.3504 300.263C67.3504 292.433 67.8725 286.691 68.8122 283.559C69.752 280.844 72.2581 276.981 74.8686 274.371C77.3747 271.865 81.2382 269.255 83.5354 268.42C86.5636 267.376 91.6802 266.959 101.809 267.167ZM89.0697 299.637C89.1741 304.335 89.6962 308.72 90.1139 309.45C90.636 310.39 93.6641 310.599 100.765 310.494L110.685 310.181C111.102 293.164 110.893 290.136 109.954 289.614C109.223 289.196 104.837 288.779 100.243 288.779C95.126 288.779 91.1581 289.301 90.3227 290.032C89.2785 290.971 88.9653 293.581 89.0697 299.637ZM191.088 267.167C202.47 267.376 205.289 267.794 208.839 269.673C211.136 270.821 214.478 273.432 216.253 275.311C217.924 277.294 220.116 280.74 220.952 283.037C221.892 285.855 222.414 291.598 222.414 300.785C222.414 314.044 222.309 314.462 219.177 320.1C216.879 324.067 214.373 326.781 210.928 328.974C206.124 332.001 205.289 332.106 192.236 332.419C184.718 332.628 177.2 332.523 175.425 332.21C173.65 331.897 170.204 330.227 167.593 328.556C164.565 326.573 161.746 323.545 159.762 319.891C156.734 314.566 156.629 313.94 156.629 300.785C156.629 291.598 157.151 285.855 158.091 283.037C158.926 280.74 161.119 277.294 162.79 275.311C164.565 273.432 167.385 271.135 168.951 270.195C170.517 269.36 173.128 268.211 174.694 267.794C176.26 267.272 183.57 267.063 191.088 267.167ZM179.288 300.889L179.602 310.181H199.441V289.301C182.421 288.779 180.019 288.988 179.602 290.136C179.288 290.867 179.184 295.774 179.288 300.889ZM436.474 347.244C439.502 347.14 441.486 347.871 443.47 349.854C445.141 351.316 446.707 353.717 447.021 355.388C447.334 356.954 447.334 359.355 447.021 360.817C446.603 362.278 431.88 377.834 379.043 430.766H374.344C369.646 430.766 369.646 430.662 351.163 412.183C338.424 399.55 332.368 392.764 332.054 390.885C331.741 389.214 332.263 386.5 333.099 384.829C333.934 383.159 335.709 380.966 336.962 380.131C338.32 379.296 341.035 378.565 343.019 378.565C346.256 378.565 348.135 380.027 373.822 405.605L403.06 376.477C431.462 348.184 432.506 347.244 436.474 347.244ZM103.375 356.014C112.982 356.327 115.697 356.745 119.56 358.729C122.171 360.086 125.408 362.383 126.765 363.844C128.123 365.306 130.107 368.438 131.151 370.735C132.717 374.18 133.135 377.521 133.135 389.005C133.135 400.49 132.717 403.831 131.151 407.276C130.107 409.573 128.123 412.705 126.765 414.166C125.408 415.628 122.171 417.925 119.56 419.387C115.279 421.579 113.608 421.892 101.287 421.892C91.9934 421.892 86.3548 421.37 83.5354 420.431C81.2382 419.595 77.7923 417.403 75.8084 415.732C73.9288 413.958 71.3183 410.617 70.0653 408.32C68.0813 404.666 67.8725 402.473 67.8725 389.005C67.8725 376.268 68.1857 373.345 69.8564 370.213C70.9006 368.229 72.989 365.201 74.5553 363.635C76.0172 361.965 78.6277 359.877 80.4028 359.042C82.0736 358.102 85.415 357.058 87.7122 356.536C90.0095 356.118 97.0056 355.805 103.375 356.014ZM89.4874 390.154L89.8006 398.924H110.685V379.087C92.62 378.565 90.2183 378.774 89.8006 379.922C89.4874 380.758 89.3829 385.351 89.4874 390.154ZM192.132 356.014C201.843 356.223 204.454 356.64 208.735 358.833C211.554 360.19 215.104 362.8 216.462 364.471C217.924 366.141 219.803 369.273 220.743 371.257C221.892 373.971 222.309 378.461 222.309 389.005C222.309 399.55 221.892 404.039 220.743 406.754C219.803 408.737 217.924 411.87 216.462 413.54C215.104 415.21 211.554 417.82 208.735 419.282C204.036 421.683 202.47 421.892 189.521 421.892C176.573 421.892 175.007 421.683 170.308 419.282C167.489 417.82 163.939 415.21 162.581 413.54C161.119 411.87 159.24 408.737 158.404 406.754C157.569 404.77 156.629 398.61 156.42 393.181C156.107 387.648 156.42 380.444 157.047 376.999C157.673 373.554 159.449 368.96 160.806 366.872C162.268 364.679 165.192 361.756 167.28 360.295C169.473 358.833 173.336 357.267 175.947 356.745C178.557 356.118 185.762 355.805 192.132 356.014ZM179.08 399.446H199.963V378.565H179.08V399.446Z" fill="black"/>
<path d="M105.464 177.799C102.645 178.007 98.1546 178.007 95.5441 177.799C92.9336 177.59 95.3353 177.485 100.765 177.485C106.195 177.485 108.388 177.59 105.464 177.799Z" fill="black" fill-opacity="0.7"/>
<path d="M194.221 177.799C191.401 178.007 186.911 178.007 184.301 177.799C181.69 177.59 184.092 177.485 189.522 177.485C194.952 177.485 197.145 177.59 194.221 177.799Z" fill="black" fill-opacity="0.7"/>
<path d="M282.978 177.799C280.158 178.007 275.668 178.007 273.058 177.799C270.447 177.59 272.849 177.485 278.279 177.485C283.709 177.485 285.901 177.59 282.978 177.799Z" fill="black" fill-opacity="0.7"/>
<path d="M372.779 177.799C369.959 178.007 365.469 178.007 362.859 177.799C360.248 177.59 362.65 177.485 368.08 177.485C373.51 177.485 375.702 177.59 372.779 177.799Z" fill="black" fill-opacity="0.7"/>
<path d="M133.866 215.175C133.657 218.098 133.553 215.906 133.553 210.477C133.553 205.048 133.657 202.646 133.866 205.256C134.075 207.867 134.075 212.356 133.866 215.175Z" fill="black" fill-opacity="0.7"/>
<path d="M245.595 215.175C245.386 218.098 245.282 215.906 245.282 210.477C245.282 205.048 245.386 202.646 245.595 205.256C245.804 207.867 245.804 212.356 245.595 215.175Z" fill="black" fill-opacity="0.7"/>
<path d="M401.181 215.175C400.972 218.098 400.868 215.906 400.868 210.477C400.868 205.048 400.972 202.646 401.181 205.256C401.39 207.867 401.39 212.356 401.181 215.175Z" fill="black" fill-opacity="0.7"/>
<path d="M133.866 304.961C133.657 307.884 133.553 305.692 133.553 300.263C133.553 294.834 133.657 292.433 133.866 295.043C134.075 297.653 134.075 302.142 133.866 304.961Z" fill="black" fill-opacity="0.7"/>
<path d="M105.464 333.359C102.54 333.567 98.1546 333.567 95.5441 333.359C92.9336 333.15 95.3353 333.045 100.765 333.045C106.195 333.045 108.283 333.15 105.464 333.359Z" fill="black" fill-opacity="0.7"/>
<path d="M194.221 333.359C191.297 333.567 186.911 333.567 184.301 333.359C181.69 333.15 184.092 333.045 189.522 333.045C194.952 333.045 197.04 333.15 194.221 333.359Z" fill="black" fill-opacity="0.7"/>
<path d="M133.866 393.703C133.657 396.627 133.553 394.434 133.553 389.005C133.553 383.576 133.657 381.175 133.866 383.785C134.075 386.395 134.075 390.885 133.866 393.703Z" fill="black" fill-opacity="0.7"/>
<path d="M67.0379 215.175C66.829 218.098 66.7246 215.906 66.7246 210.477C66.7246 205.048 66.829 202.647 67.0379 205.257C67.2467 207.867 67.2467 212.252 67.0379 215.175Z" fill="black" fill-opacity="0.3"/>
<path d="M312.424 215.175C312.215 218.098 312.111 215.906 312.111 210.477C312.111 205.048 312.215 202.647 312.424 205.257C312.633 207.867 312.633 212.252 312.424 215.175Z" fill="black" fill-opacity="0.3"/>
<path d="M334.352 215.175C334.144 218.098 334.039 215.906 334.039 210.477C334.039 205.048 334.144 202.647 334.352 205.257C334.561 207.867 334.561 212.252 334.352 215.175Z" fill="black" fill-opacity="0.3"/>
<path d="M105.464 244.616C102.645 244.825 98.155 244.825 95.5445 244.616C92.934 244.408 95.3356 244.303 100.765 244.303C106.195 244.303 108.388 244.408 105.464 244.616Z" fill="black" fill-opacity="0.3"/>
<path d="M194.221 244.616C191.402 244.825 186.912 244.825 184.301 244.616C181.691 244.408 184.092 244.303 189.522 244.303C194.952 244.303 197.145 244.408 194.221 244.616Z" fill="black" fill-opacity="0.3"/>
<path d="M282.978 244.616C280.159 244.825 275.669 244.825 273.058 244.616C270.448 244.408 272.849 244.303 278.279 244.303C283.709 244.303 285.902 244.408 282.978 244.616Z" fill="black" fill-opacity="0.3"/>
<path d="M372.779 244.616C369.96 244.825 365.47 244.825 362.859 244.616C360.249 244.408 362.65 244.303 368.08 244.303C373.51 244.303 375.703 244.408 372.779 244.616Z" fill="black" fill-opacity="0.3"/>
<path d="M105.464 266.541C102.645 266.75 98.155 266.75 95.5445 266.541C92.934 266.332 95.3356 266.228 100.765 266.228C106.195 266.228 108.388 266.332 105.464 266.541Z" fill="black" fill-opacity="0.3"/>
<path d="M194.221 266.541C191.402 266.75 186.912 266.75 184.301 266.541C181.691 266.332 184.092 266.228 189.522 266.228C194.952 266.228 197.145 266.332 194.221 266.541Z" fill="black" fill-opacity="0.3"/>
<path d="M67.0379 304.961C66.829 307.884 66.7246 305.692 66.7246 300.263C66.7246 294.834 66.829 292.433 67.0379 295.043C67.2467 297.653 67.2467 302.038 67.0379 304.961Z" fill="black" fill-opacity="0.3"/>
<path d="M67.0379 393.704C66.829 396.627 66.7246 394.434 66.7246 389.005C66.7246 383.576 66.829 381.175 67.0379 383.785C67.2467 386.395 67.2467 390.78 67.0379 393.704Z" fill="black" fill-opacity="0.3"/>
<path d="M367.035 428.678C366.722 428.678 359.204 421.37 350.328 412.496C341.453 403.622 334.457 396.313 334.979 396.313C335.396 396.313 342.915 403.622 351.686 412.496C360.353 421.37 367.349 428.678 367.035 428.678Z" fill="black"/>
<path d="M365.991 428.678C365.678 428.678 358.473 421.684 349.806 413.018C341.14 404.353 334.457 397.358 334.979 397.358C335.397 397.358 342.706 404.457 351.164 413.018C359.622 421.684 366.305 428.678 365.991 428.678Z" fill="black" fill-opacity="0.3"/>
<path d="M374.345 404.666C374.032 404.666 368.393 399.237 361.814 392.659C355.236 386.082 350.224 380.653 350.642 380.653C351.059 380.653 356.698 386.082 363.172 392.659C369.646 399.237 374.658 404.666 374.345 404.666Z" fill="black" fill-opacity="0.1"/>
<path d="M381.132 429.201L412.458 397.671V397.566C429.687 380.236 443.888 366.037 443.993 366.037C444.201 366.037 444.306 366.141 444.306 366.246C444.306 366.454 430.105 380.653 381.132 429.201Z" fill="black" fill-opacity="0.5"/>
<path d="M105.464 199.723C103.167 199.932 98.9904 199.932 96.0666 199.723C93.1429 199.514 95.0224 199.41 100.243 199.41C105.464 199.41 107.762 199.514 105.464 199.723Z" fill="black" fill-opacity="0.7"/>
<path d="M194.221 199.723C191.402 199.932 186.912 199.932 184.301 199.723C181.691 199.514 184.092 199.41 189.522 199.41C194.952 199.41 197.145 199.514 194.221 199.723Z" fill="black" fill-opacity="0.7"/>
<path d="M284.022 199.723C281.725 199.932 277.548 199.932 274.624 199.723C271.701 199.514 273.685 199.41 278.801 199.41C283.918 199.41 286.319 199.514 284.022 199.723Z" fill="black" fill-opacity="0.7"/>
<path d="M372.779 199.723C370.482 199.932 366.305 199.932 363.381 199.723C360.457 199.514 362.441 199.41 367.558 199.41C372.675 199.41 375.076 199.514 372.779 199.723Z" fill="black" fill-opacity="0.7"/>
<path d="M111.938 216.219C111.73 218.516 111.625 216.114 111.625 210.999C111.625 205.883 111.73 204.004 111.938 206.823C112.147 209.746 112.147 213.922 111.938 216.219Z" fill="black" fill-opacity="0.7"/>
<path d="M267.524 216.219C267.315 218.516 267.211 216.114 267.211 210.999C267.211 205.883 267.315 204.004 267.524 206.823C267.733 209.746 267.733 213.922 267.524 216.219Z" fill="black" fill-opacity="0.7"/>
<path d="M379.253 216.219C379.044 218.516 378.94 216.114 378.94 210.999C378.94 205.883 379.044 204.004 379.253 206.823C379.462 209.746 379.462 213.922 379.253 216.219Z" fill="black" fill-opacity="0.7"/>
<path d="M111.938 304.961C111.73 307.258 111.625 304.857 111.625 299.741C111.625 294.625 111.73 292.746 111.938 295.565C112.147 298.488 112.147 302.664 111.938 304.961Z" fill="black" fill-opacity="0.7"/>
<path d="M105.464 311.434C103.167 311.643 98.886 311.643 96.0666 311.434C93.1429 311.225 95.0224 311.121 100.243 311.121C105.36 311.121 107.762 311.225 105.464 311.434Z" fill="black" fill-opacity="0.7"/>
<path d="M194.221 311.434C191.297 311.643 186.912 311.643 184.301 311.434C181.691 311.225 184.092 311.121 189.522 311.121C194.952 311.121 197.041 311.225 194.221 311.434Z" fill="black" fill-opacity="0.7"/>
<path d="M111.938 393.703C111.73 396.627 111.625 394.434 111.625 389.005C111.625 383.576 111.73 381.175 111.938 383.785C112.147 386.395 112.147 390.885 111.938 393.703Z" fill="black" fill-opacity="0.7"/>
<path d="M178.767 216.219C178.558 218.516 178.454 216.114 178.454 210.999C178.454 205.883 178.558 203.899 178.767 206.823C178.976 209.642 178.976 213.922 178.767 216.219Z" fill="black" fill-opacity="0.3"/>
<path d="M200.695 216.219C200.486 218.516 200.382 216.114 200.382 210.999C200.382 205.883 200.486 203.899 200.695 206.823C200.904 209.642 200.904 213.922 200.695 216.219Z" fill="black" fill-opacity="0.3"/>
<path d="M178.767 304.961C178.558 307.258 178.454 304.857 178.454 299.741C178.454 294.625 178.558 292.642 178.767 295.565C178.976 298.384 178.976 302.664 178.767 304.961Z" fill="black" fill-opacity="0.3"/>
<path d="M200.695 304.961C200.486 307.258 200.382 304.857 200.382 299.741C200.382 294.625 200.486 292.642 200.695 295.565C200.904 298.384 200.904 302.664 200.695 304.961Z" fill="black" fill-opacity="0.3"/>
<path d="M105.464 378.252C103.167 378.461 98.9904 378.461 96.0666 378.252C93.1429 378.043 95.0224 377.939 100.243 377.939C105.464 377.939 107.762 378.043 105.464 378.252Z" fill="black" fill-opacity="0.3"/>
<path d="M194.221 378.252C191.402 378.461 186.912 378.461 184.301 378.252C181.691 378.043 184.092 377.939 189.522 377.939C194.952 377.939 197.145 378.043 194.221 378.252Z" fill="black" fill-opacity="0.3"/>
<path d="M178.767 393.704C178.558 396.522 178.454 394.434 178.454 389.005C178.454 383.576 178.558 381.175 178.767 383.785C178.976 386.395 178.976 390.78 178.767 393.704Z" fill="black" fill-opacity="0.3"/>
<path d="M200.695 393.704C200.486 396.522 200.382 394.434 200.382 389.005C200.382 383.576 200.486 381.175 200.695 383.785C200.904 386.395 200.904 390.78 200.695 393.704Z" fill="black" fill-opacity="0.3"/>
<path d="M105.464 400.177C103.167 400.385 98.9904 400.385 96.0666 400.177C93.2473 399.968 95.1269 399.863 100.243 399.863C105.464 399.863 107.762 399.968 105.464 400.177Z" fill="black" fill-opacity="0.3"/>
<path d="M194.221 400.177C191.402 400.385 186.912 400.385 184.301 400.177C181.691 399.968 184.092 399.863 189.522 399.863C194.952 399.863 197.145 399.968 194.221 400.177Z" fill="black" fill-opacity="0.3"/>
</svg>
