<svg width="375" height="512" viewBox="0 0 375 512" fill="none" xmlns="http://www.w3.org/2000/svg">
<g clip-path="url(#clip0_5610_2489)">
<path d="M85.7041 285.912L102.554 301.675L139.309 270.835" stroke="black" stroke-width="10" stroke-linecap="round" stroke-linejoin="round"/>
<path d="M85.7041 190.631L102.554 206.395L139.309 175.555" stroke="black" stroke-width="10" stroke-linecap="round" stroke-linejoin="round"/>
<path d="M85.7041 285.21L102.554 300.974L139.309 270.134" stroke="black" stroke-width="10" stroke-linecap="round" stroke-linejoin="round"/>
<path d="M85.7041 379.607L102.554 395.37L139.309 364.53" stroke="black" stroke-width="10" stroke-linecap="round" stroke-linejoin="round"/>
<path d="M282.539 78.189H344.124C349.451 78.189 354.558 80.1241 358.326 83.5687C362.094 87.0135 364.212 91.6858 364.213 96.5583V475.308C364.217 477.723 363.698 480.115 362.691 482.346C361.683 484.579 360.203 486.607 358.337 488.316C356.472 490.024 354.256 491.38 351.817 492.304C349.379 493.229 346.764 493.705 344.124 493.705H26.4391C23.8011 493.707 21.1891 493.232 18.7517 492.309C16.3145 491.386 14.0997 490.034 12.2341 488.328C10.3686 486.622 8.88869 484.597 7.87902 482.368C6.86933 480.139 6.34961 477.75 6.34961 475.336V96.5583C6.34961 94.1454 6.86933 91.7562 7.87902 89.527C8.88869 87.2979 10.3686 85.2726 12.2341 83.5667C14.0997 81.8609 16.3145 80.508 18.7517 79.5852C21.1891 78.6625 23.8011 78.1881 26.4391 78.189H87.2356" stroke="black" stroke-width="15" stroke-linecap="round" stroke-linejoin="round"/>
<path d="M283.305 107.408H329.442V460.671H40.5088V107.408H86.2173" stroke="black" stroke-width="15" stroke-linecap="round" stroke-linejoin="round"/>
<path d="M272.589 124.553V82.7982C272.588 76.1865 269.714 69.8463 264.603 65.1719C259.492 60.4975 252.56 57.8714 245.332 57.8714H199.378C199.242 57.8749 199.109 57.8338 199.004 57.7556C198.9 57.6775 198.828 57.5673 198.803 57.4453C198.78 57.3233 198.805 57.1973 198.873 57.0904C198.942 56.9835 199.051 56.9027 199.178 56.8626C200.073 56.6457 200.934 56.323 201.737 55.9028C230.917 36.6717 232.449 6.79883 185.209 6.79883C136.743 6.79883 133.679 30.4015 171.423 56.9046C171.921 57.2549 171.843 57.9065 171.215 57.9065H124.81C121.231 57.9055 117.687 58.5496 114.38 59.8019C111.073 61.0542 108.068 62.8901 105.536 65.2049C103.005 67.5196 100.997 70.2678 99.6273 73.2926C98.2573 76.3173 97.5522 79.5592 97.5522 82.8333V124.588C97.5522 124.656 97.5669 124.724 97.5953 124.786C97.6238 124.849 97.6656 124.907 97.7182 124.954C97.7709 125.003 97.8333 125.04 97.9022 125.067C97.9708 125.093 98.0445 125.107 98.1189 125.107H256.291" stroke="black" stroke-width="15" stroke-linecap="round" stroke-linejoin="round"/>
<path d="M162.294 175.573H303.983" stroke="black" stroke-width="10" stroke-linecap="round" stroke-linejoin="round"/>
<path d="M162.294 195.183H303.983" stroke="black" stroke-width="10" stroke-linecap="round" stroke-linejoin="round"/>
<path d="M162.294 214.805H303.983" stroke="black" stroke-width="10" stroke-linecap="round" stroke-linejoin="round"/>
<path d="M162.294 270.848H303.983" stroke="black" stroke-width="10" stroke-linecap="round" stroke-linejoin="round"/>
<path d="M162.294 290.464H303.983" stroke="black" stroke-width="10" stroke-linecap="round" stroke-linejoin="round"/>
<path d="M162.294 310.086H303.983" stroke="black" stroke-width="10" stroke-linecap="round" stroke-linejoin="round"/>
<path d="M162.294 366.127H303.983" stroke="black" stroke-width="10" stroke-linecap="round" stroke-linejoin="round"/>
<path d="M162.294 385.743H303.983" stroke="black" stroke-width="10" stroke-linecap="round" stroke-linejoin="round"/>
<path d="M162.294 405.359H303.983" stroke="black" stroke-width="10" stroke-linecap="round" stroke-linejoin="round"/>
<path d="M112.502 107.408H258.29" stroke="black" stroke-width="10" stroke-linecap="round" stroke-linejoin="round"/>
<path d="M133.649 195.005C133.649 202.622 130.34 209.929 124.452 215.315C118.563 220.702 110.576 223.729 102.247 223.729C93.919 223.729 85.932 220.702 80.043 215.315C74.154 209.929 70.8457 202.622 70.8457 195.005C70.8457 187.387 74.154 180.08 80.043 174.693C85.932 169.307 93.919 166.28 102.247 166.28C106.373 166.274 110.459 167.013 114.27 168.455C118.082 169.898 121.544 172.016 124.458 174.688" stroke="black" stroke-width="10" stroke-linecap="round" stroke-linejoin="round"/>
<path d="M133.649 289.583C133.649 297.202 130.34 304.508 124.452 309.895C118.563 315.281 110.576 318.308 102.247 318.308C93.919 318.308 85.932 315.281 80.043 309.895C74.154 304.508 70.8457 297.202 70.8457 289.583C70.8457 281.966 74.154 274.659 80.043 269.273C85.932 263.886 93.919 260.86 102.247 260.86C106.373 260.853 110.459 261.592 114.27 263.034C118.082 264.478 121.544 266.596 124.458 269.267" stroke="black" stroke-width="10" stroke-linecap="round" stroke-linejoin="round"/>
<path d="M133.649 383.98C133.649 391.598 130.34 398.904 124.452 404.292C118.563 409.678 110.576 412.705 102.247 412.705C93.919 412.705 85.932 409.678 80.043 404.292C74.154 398.904 70.8457 391.598 70.8457 383.98C70.8457 376.363 74.154 369.056 80.043 363.67C85.932 358.283 93.919 355.256 102.247 355.256C106.373 355.249 110.459 355.989 114.27 357.431C118.082 358.875 121.544 360.993 124.458 363.664" stroke="black" stroke-width="10" stroke-linecap="round" stroke-linejoin="round"/>
</g>
<defs>
<clipPath id="clip0_5610_2489">
<rect width="374.634" height="512" fill="white"/>
</clipPath>
</defs>
</svg>
