<svg width="512" height="512" viewBox="0 0 512 512" fill="none" xmlns="http://www.w3.org/2000/svg">
<g clip-path="url(#clip0_5610_2514)">
<mask id="mask0_5610_2514" style="mask-type:luminance" maskUnits="userSpaceOnUse" x="0" y="0" width="512" height="512">
<path d="M512 0H0V512H512V0Z" fill="white"/>
</mask>
<g mask="url(#mask0_5610_2514)">
<path d="M198.2 41.1968L198.499 82.4968L227.2 82.7968L256 82.9968L256.2 107.897L256.499 132.797L286.301 107.897L316.2 82.9968H356.101H396V41.4968V-0.00317383H297H198L198.2 41.1968ZM380 41.4968V65.9968H345.4H310.8L292.2 81.4968L273.501 97.0968L273 81.7968L272.499 66.4968L243.8 66.1968L215 65.9968V41.4968V16.9968H297.501H380V41.4968Z" fill="black"/>
<path d="M231.2 41.2L231.5 49.5H239.5H247.5L247.8 41.2L248.1 33H239.5H230.9L231.2 41.2Z" fill="black"/>
<path d="M264.2 41.2L264.5 49.5L297.3 49.8L330 50V41.5V33H297H263.9L264.2 41.2Z" fill="black"/>
<path d="M347 41.5V50H355H363V41.5V33H355H347V41.5Z" fill="black"/>
<path d="M168.4 125.9C153 130.3 140.4 142.3 134.8 157.8C133.2 162.299 132.6 166.8 132.3 178.499C131.6 200.299 134.2 209.899 144.5 222.499C149 228 149.1 228.101 148.8 234.8L148.5 241.501L129.5 247C109.1 252.899 105.3 254.8 99.5 261.099C92.3 269.099 91.5 272.099 91.2 294.2L90.8 314H74.4H58V338.499V363H66H74V429V495H37H0V503.501V512H256H512V503.501V495H466C422.899 495 420 494.899 420 493.2C420 492.299 418.6 478.2 417 462C415.4 445.8 414 431.6 414 430.4C414 428.8 415 428.099 418.899 427.2C428.6 425 437 420.099 445 412.099C453.301 403.699 457.2 397.299 460.101 387.2C461.899 380.899 462 376.699 462 322.301V264H445.6H429.2L428.8 253.699C428.499 244.8 428.101 242.899 425.701 238.8C424.301 236.299 421 232.4 418.4 230.101L413.8 226.101L417.8 221.299C426.8 210.4 429 202.8 429 181.501C429 168.8 428.6 164.299 427.101 159.4C419.301 133.8 392.2 118.7 366.8 125.9C349.899 130.8 336.8 144 331.899 161.501C330.899 164.899 330.499 171.6 330.6 182.499C330.701 199.8 332 206 337.6 215.699C341.101 221.6 351.8 231.299 357.899 234.101L363.101 236.4L340.8 258.699L318.499 281H295.301H272V278.2C272 274.2 266.8 264.099 262.499 259.6C257.4 254.4 252 252.101 232 246.4L215 241.6V234.2C215 227.101 215.101 226.699 218.8 222.499C223.8 216.8 227.6 209.699 229.501 202.499C231.6 194.101 231.6 168.299 229.4 160.899C221.301 133.8 194.499 118.4 168.4 125.9ZM195.101 143.7C208.699 149.6 215 161.6 215 181.501C215 202 209.101 213.299 195.101 219.8C186.901 223.6 175.8 223.6 167.901 219.699C160.499 216.101 153.9 208.899 151.1 201.699C149.3 196.8 149 193.8 149 181.501C149 169.501 149.3 166.2 151 161.699C154.9 151.4 164 143.7 175 141.4C182 139.9 188 140.6 195.101 143.7ZM389.8 142.2C397.899 144.2 406.101 151.7 410.301 160.699C412.301 165 412.499 167.101 412.499 181.501C412.499 196.6 412.4 197.8 409.899 203C406.301 210.8 401.899 215.4 394.899 218.899C381 225.8 365.6 223.101 355.501 211.8C348.8 204.499 347.6 200.299 347.2 184.101C346.8 167.699 347.6 163.101 352.701 155.3C360.899 142.8 373.899 138.2 389.8 142.2ZM181.501 238.499C187 238.499 193 238.101 194.8 237.699L198 236.8V241.299C198 246.8 195 250.899 188.699 253.899C183.2 256.499 179.501 256.499 174.499 253.899C168.2 250.699 165 246.4 165 241.2V236.699L168.301 237.6C170 238.101 176 238.499 181.501 238.499ZM393.501 242.499C395.301 244.2 396 246 396 248.699C396 252.299 394.8 253.699 365.301 283.2L334.499 314H290.701C244.6 314 242.301 313.8 240.6 309.501C239.699 307.099 239.901 303.099 241 301C242.901 297.4 247.101 297 286.899 297H325.4L354 268.499C382.499 240.2 382.701 240 386.899 240C390 240 391.701 240.6 393.501 242.499ZM412 360.8C409.899 369.501 403.101 376.499 394.4 378.899C392 379.6 377.8 380 356.301 380H322V371.501V363H334.499H347V344.301V325.501L377.4 295C406 266.301 411.501 259.899 412.2 254.299C412.4 253.299 412.6 275.899 412.8 304.499C413 338.8 412.701 358 412 360.8ZM248.4 269.4C251.501 271.4 255 276.6 255 279.2C255 280.699 254 281 248.8 281C238.499 281.099 230.301 285.899 225.699 294.499C224 297.6 223.501 300.2 223.501 306.2L223.6 314H165.2H106.8L107.2 296.2C107.7 270.6 107.8 270.4 133.6 262.899C142.9 260.301 151.1 258 151.8 258C152.5 258 155.9 260.4 159.4 263.4C166.699 269.6 173.4 272.2 181.8 272.099C191.501 272 199.101 268.699 206.301 261.2L210.101 257.301L227.901 262.4C237.699 265.301 246.901 268.4 248.4 269.4ZM445.8 330.699C445.501 379.899 445.501 380.6 443.2 386.2C438.8 397.099 430.101 405.8 419.2 410.2C413.6 412.4 412.701 412.499 367.8 412.8L322 413.099V404.6V396.099L360.301 395.8L398.499 395.501L405.2 392.299C414 388.2 421.2 381 425.301 372.2L428.499 365.501L428.8 323.2L429.101 281H437.6H446.101L445.8 330.699ZM330 338.499V347H202H74V339.2C74 334.899 74.3 331 74.7 330.699C75 330.301 132.6 330 202.699 330H330V338.499ZM305.501 371.501V379.501L218.8 379.8L132 380V388V396L218.8 396.2L305.501 396.499L305.8 445.699L306 495H295.701H285.501L277.2 478.499L269 462H198H127L118.8 478.499L110.5 495H100.8H91V445.501V396H103.5H116V388V380H103.5H91V371.501V363L198.301 363.2L305.501 363.501V371.501ZM364.4 432.699C364.701 434.8 366.101 448.4 367.501 463C368.899 477.6 370.2 490.699 370.499 492.2L371 495H346.499H322V462V429H342.899H363.8L364.4 432.699ZM397.4 432.699C397.701 434.8 399.101 448.4 400.499 463C401.899 477.6 403.2 490.699 403.501 492.2L404 495H395.501C388.101 495 387 494.8 387 493.2C387 492.299 385.6 478.2 384 462C382.4 445.8 381 431.699 381 430.699C381 429.2 382 429 388.899 429H396.8L397.4 432.699ZM263 487L267 495H198H129L133 487L137 479H198H259L263 487Z" fill="black"/>
</g>
</g>
<defs>
<clipPath id="clip0_5610_2514">
<rect width="512" height="512" fill="white"/>
</clipPath>
</defs>
</svg>
