<svg width="607" height="512" viewBox="0 0 607 512" fill="none" xmlns="http://www.w3.org/2000/svg">
<g clip-path="url(#clip0_5610_2482)">
<path d="M29.4781 1.33102C15.6114 5.24215 4.11513 17.4495 1.03364 31.6718C0.0854944 36.531 -0.151543 81.8051 0.0854945 205.894L0.44105 373.597L3.75958 380.354C7.78921 388.65 16.204 397.064 23.0781 399.908C28.53 402.042 28.6485 402.279 30.0707 411.523C31.8485 422.783 43.2263 436.175 54.13 439.85C60.6485 442.101 48.5596 440.679 321.033 471.493C474.99 488.797 534.486 495.08 539.701 494.606C554.041 493.183 566.96 483.939 573.004 470.902C575.494 465.33 576.916 452.056 591.256 298.93C601.448 191.198 606.546 130.99 606.071 127.198C604.53 114.753 594.574 101.005 583.433 95.5533C580.352 94.131 572.886 92.2347 566.012 91.4051C559.375 90.457 552.264 89.3903 550.248 89.0347L546.456 88.4421L545.982 60.3533C545.508 34.8718 545.271 31.6718 542.783 25.6273C539.108 16.1458 532.233 8.7977 522.752 4.1755L514.812 0.264357L274.811 0.0273411C85.8929 -0.0911846 33.6263 0.145831 29.4781 1.33102ZM514.219 22.4273C517.183 23.9681 520.738 26.931 522.16 29.0644C524.648 32.857 526.782 43.2866 525.833 47.7903C525.479 50.0421 519.079 50.0421 272.56 50.3977L19.7596 50.6347L20.2337 41.8644C20.5892 34.1607 21.0633 32.5014 24.2633 28.4718C26.2781 25.9829 29.7152 23.0199 31.967 21.9533C35.7596 19.9384 49.6262 19.8199 272.441 19.8199H509.004L514.219 22.4273ZM526.071 101.005V131.227H273.034H19.9966V101.005V70.7829H273.034H526.071V101.005ZM561.863 109.301C575.731 110.25 579.76 112.383 584.027 120.916L586.752 126.487L571.227 293.242C553.567 481.212 555.82 466.635 544.559 472.442L538.871 475.405L452.115 465.687C102.011 426.219 64.204 421.835 60.6485 419.939C56.1448 417.686 51.2855 411.643 50.2189 407.139L49.3892 403.82L282.633 403.583L515.997 403.227L521.567 400.619C533.775 395.05 542.426 383.672 544.916 370.042C545.864 365.301 546.219 322.397 546.219 235.168C546.219 114.042 546.338 107.405 548.352 107.998C549.42 108.235 555.583 108.827 561.863 109.301ZM525.833 260.056C525.479 358.664 525.242 369.213 523.463 372.412C520.975 377.035 516.826 380.828 512.679 382.368C510.309 383.316 437.419 383.672 272.797 383.672C39.1966 383.672 36.1152 383.672 31.3744 381.302C28.6485 379.997 25.2114 377.035 23.5522 374.545L20.5892 370.161L20.2337 260.768L19.9966 151.375H273.034H526.19L525.833 260.056Z" fill="black"/>
<path d="M44.6488 194.046C39.1969 198.313 39.3154 206.135 44.7673 210.284C46.1895 211.35 57.9228 211.706 90.634 211.824C133.419 211.824 134.723 211.706 137.804 209.336C141.597 206.255 142.071 199.38 138.634 195.114L136.382 192.269L92.0562 191.913C48.9154 191.558 47.6117 191.676 44.6488 194.046Z" fill="black"/>
<path d="M167.315 192.861C161.389 195.231 160.204 205.306 165.3 209.336C168.382 211.706 169.686 211.824 212.471 211.824C259.878 211.706 259.286 211.824 261.774 205.424C263.316 201.157 262.131 196.891 258.575 194.046C255.611 191.795 253.715 191.676 212.708 191.795C189.241 191.795 168.737 192.269 167.315 192.861Z" fill="black"/>
<path d="M46.0703 233.514C39.9074 236.595 38.7222 244.772 43.6999 249.75C45.9518 252.003 47.9666 252.12 115.996 252.12H186.041L188.885 249.158C193.864 244.298 192.085 235.41 185.567 233.157C179.996 231.261 49.9814 231.498 46.0703 233.514Z" fill="black"/>
<path d="M217.922 233.514C211.759 236.595 210.574 244.772 215.552 249.75C217.685 251.883 219.582 252.12 237.005 252.12C247.434 252.12 257.033 251.646 258.219 250.935C261.657 249.158 263.433 242.284 261.537 238.254C258.93 232.92 255.611 231.972 237.479 231.972C226.456 231.972 219.938 232.566 217.922 233.514Z" fill="black"/>
<path d="M318.9 233.157C312.974 235.647 312.62 238.846 312.974 290.283L313.331 337.691L316.649 340.535L319.968 343.379H404.353C468.827 343.262 489.212 342.905 490.634 341.84C495.019 338.402 495.256 336.268 495.256 287.202V239.203L492.411 235.884L489.567 232.566L405.538 232.329C355.878 232.209 320.559 232.566 318.9 233.157ZM475.108 287.676V323.231H404.59H334.071V287.676V252.12H404.59H475.108V287.676Z" fill="black"/>
</g>
<defs>
<clipPath id="clip0_5610_2482">
<rect width="606.815" height="512" fill="white"/>
</clipPath>
</defs>
</svg>
