<svg width="320" height="448" viewBox="0 0 320 448" fill="none" xmlns="http://www.w3.org/2000/svg">
<g clip-path="url(#clip0_5617_2381)">
<path fill-rule="evenodd" clip-rule="evenodd" d="M4.9 0H315L320 5V379.5L251.5 448H5L0 443L0.1 4.9L2.5 2.5L4.9 0ZM16 432H240V373L244.9 368H304V16H16V432ZM256 420.5C283.9 392.6 292 384.3 292 384.2C292 384.1 283.9 384 274 384H256V420.5ZM55.5 32.1C57.7 32 61.3 32.5 63.5 33.2C65.9 33.9 69.5 36.3 72.5 39.4C75.6 42.5 78 46 78.8 48.5C79.4 50.7 80 54 80 56C80 57.9 79.4 61.2 78.7 63.4C78.1 65.6 75.7 69.4 73.4 71.9C70.7333 74.9667 67.7333 77.0667 64.4 78.2C61.7 79.2 57.9 80 56 79.9C54.1 79.9 50.7 79.4 48.5 78.7C46.1 78 42.5 75.6 39.5 72.5C36.4 69.4 34 65.9 33.2 63.5C32.6 61.3 32 57.9 32 56C32 54 32.6 50.7 33.2 48.5C34 46 36.4 42.5 39.5 39.4C42.2 36.6 46.1 33.9 48 33.3C49.9 32.7 53.3 32.1 55.5 32.1ZM48 55.9C48 57.9 48.9 59.8 50.5 61.5C52.1 63 54.1 64 56 64C58 64 60 63 61.5 61.5C63 59.9 64 57.8 64 56C64 54.1 63.1 52 61.5 50.5C59.9 48.9 57.9 48 56 48C54 48 52 48.9 50.5 50.4C49.1 51.9 48.1 54.1 48 55.9ZM119.2 32C120.2 32 122 32.4 123.2 33C124.5 33.5 126.1 35 126.9 36.2C127.6 37.4 128 39.6 127.8 41C127.6 42.3 112.5 65.7 94.4 93C76.2 120.2 60.6 142.8 59.7 143.2C58.8 143.6 56.9 144 55.5 144C54.1 144 51.9 142.8 50.5 141.5C48.7 139.6 48.1 138.1 48.3 135.7C48.5 133.4 58 118.3 81.7 82.8C100 55.5 115.5 32.9 116.2 32.6C116.9 32.3 118.3 32.1 119.2 32ZM119.5 96.1C121.7 96 125.3 96.5 127.5 97.2C129.9 97.9 133.5 100.3 136.5 103.4C139.6 106.5 142 110 142.8 112.5C143.4 114.7 144 118 144 120C144 121.9 143.4 125.2 142.7 127.4C142.1 129.6 139.7 133.4 137.4 135.9C134.733 138.967 131.733 141.067 128.4 142.2C125.7 143.2 121.9 144 120 143.9C118.1 143.9 114.7 143.4 112.5 142.7C110.1 142 106.5 139.6 103.5 136.5C100.4 133.4 98 129.9 97.2 127.5C96.6 125.3 96 121.9 96 120C96 118 96.6 114.7 97.2 112.5C98 110 100.4 106.5 103.5 103.4C106.2 100.6 110.1 97.9 112 97.3C113.9 96.7 117.3 96.1 119.5 96.1ZM112 119.9C112 121.9 112.9 123.8 114.5 125.5C116.1 127 118.1 128 120 128C122 128 124 127 125.5 125.5C127 123.9 128 121.8 128 120C128 118.1 127.1 116 125.5 114.5C123.9 112.9 121.9 112 120 112C118 112 116 112.9 114.5 114.4C113.1 115.9 112.1 118.1 112 119.9ZM68.9 176H251L253.5 178.5C255.1 180 256 182.1 256 184C256 185.8 255 187.9 251.1 192H69L66.5 189.5C64.9 187.8 64 185.9 64 183.9C64.1 182.1 65.1 179.9 66.5 178.4L68.9 176ZM36.9 208H283L285.5 210.5C287 212.1 288 214.1 288 216C288 217.8 287 220 283.1 224H37L34.5 221.5C32.9 219.9 32 217.9 32 216C32.1 214.1 33 211.9 34.5 210.5L36.9 208ZM36.9 240H283L285.5 242.5C287 244 288 246.1 288 248C288 249.8 287 251.9 283.1 256H37L34.5 253.5C32.9 251.9 32 249.9 32 247.9C32.1 246.1 33 243.9 34.5 242.4L36.9 240ZM36.9 272H283L285.5 274.5C287 276.1 288 278.2 288 280C288 281.9 287 284 283.1 288H37L34.5 285.5C32.9 283.9 32 281.9 32 280C32 278.1 33 275.9 34.5 274.5L36.9 272ZM55.9 320C57.8 320 59.9 320.9 61.5 322.5C62.8 323.8 64 326.1 64 327.5C64 329 64.5 330 65.5 330C66.3 330 69.3 332.3 72.2 335.2C75.6 338.5 78 342 78.7 344.5C79.4 346.7 79.9 349.9 79.9 351.7C80 353.8 79.1 355.8 77.5 357.5C76 359.1 73.9 360 72 360C70.1 360 68 359 66.5 357.5C64.9 355.9 64 353.8 64 352C64 350.1 63 348 61.5 346.5C59.9 344.9 57.8 344 55.9 344C54 344 52 344.9 50.4 346.5C48.9 348 48 350.1 48 352C48 353.8 48.9 355.9 50.5 357.5C52.1 359.1 54.1 360 56.2 360C58 360 61.3 360.5 63.5 361.2C65.9 361.9 69.4 364.4 72.5 367.4C75.6 370.5 78 374 78.7 376.5C79.4 378.7 79.9 382 79.9 384C79.9 385.9 79.4 389.2 78.7 391.4C78 393.6 75.5 397.5 73.2 400.2C70.9 402.8 67.8 405.2 66.5 405.5C64.6 405.8 64 406.6 64 408.5C64 409.8 62.9 412.1 61.5 413.5C60 415.1 57.9 416 56 416C54.1 416 52 415 50.5 413.5C49.1 412.1 48 409.8 48 408.5C48 406.9 47.4 406 46.5 406C45.6 406 42.6 403.6 39.7 400.7C36.4 397.4 33.9 394 33.2 391.5C32.5 389.3 32 386 32 384.2C32 382.1 32.8 380.1 34.4 378.5C36 376.9 38 376 39.9 376C41.8 376 43.9 376.9 45.5 378.5C47 380 48 382.1 48 384C48 385.8 48.9 387.9 50.5 389.5C52 391 54.1 392 56 392C57.9 392 60 391.1 61.5 389.5C63 387.9 64 385.8 64 384C64 382.1 63 380 61.5 378.5C59.8 376.8 57.8 376 55.7 376C53.9 375.9 50.7 375.4 48.5 374.7C46 374 42.5 371.6 39.4 368.5C36.4 365.4 33.9 361.9 33.2 359.5C32.5 357.3 32 353.9 32 352C32 350 32.5 346.7 33.2 344.5C33.9 342 36.4 338.5 39.6 335.2C42.5 332.3 45.5 330 46.4 330C47.4 330 48 329.1 48 327.4C48 326 49.1 323.8 50.5 322.4C52 320.9 54 320 55.9 320ZM100.9 400H219L221.5 402.5C223 404 224 406.1 224 408C224 409.8 223 411.9 219.1 416H101L98.5 413.5C96.9 411.9 96 409.9 96 407.9C96 406.1 97 403.9 98.5 402.4L100.9 400Z" fill="black"/>
</g>
<defs>
<clipPath id="clip0_5617_2381">
<rect width="320" height="448" fill="white"/>
</clipPath>
</defs>
</svg>
