<svg width="512" height="488" viewBox="0 0 512 488" fill="none" xmlns="http://www.w3.org/2000/svg">
<g clip-path="url(#clip0_5617_2410)">
<path fill-rule="evenodd" clip-rule="evenodd" d="M393 0.100003C401 3.06964e-06 407.5 0.600003 414.5 2C420 3.1 427.4 5 431 6.1C434.6 7.3 441.5 10.3 446.5 12.7C451.4 15.2 458.2 19.1 461.5 21.4C464.8 23.8 470.4 28.4 473.9 31.6C477.5 34.8 483 40.9 486.3 45C489.6 49.1 494 55.4 496 59C498.1 62.6 501.3 69.1 503 73.5C504.8 77.9 507.3 85.8 508.7 91C510.1 96.7 511.3 105.1 511.7 112C512 118.7 511.8 127.1 511.1 132C510.5 136.7 509.1 144 508 148.3C506.9 152.5 504.3 159.9 502.2 164.8C500.1 169.6 495.8 177.5 492.6 182.5C489.2 187.8 482.8 195.5 477.1 201.1C471.7 206.6 463.6 213.3 458.5 216.7C453.5 219.9 445.4 224.3 440.5 226.3C435.5 228.4 428.1 231 424 232C419.9 233.1 413.3 234.4 409.5 235C405.6 235.5 399.2 236 388 236V331.5C388 411.6 387.8 428.3 386.5 434.8C385.6 439.5 383.3 446.1 380.5 451.8C377 459 374.4 462.6 368.7 468.3C363.7 473.3 359.1 476.8 353.5 479.6C349.1 481.9 342 484.7 337.7 485.9C330 488 329.1 488 194.8 488C63.5 488 59.3 488 51.5 486.1C47.1 485 39.7 482.2 35 479.8C29.2 476.8 24.5 473.5 20 469C16.4 465.4 11.5 459.3 9.3 455.5C7 451.6 4.1 445.3 2.9 441.5C0.8 435.1 0.6 432.3 0 383L4.9 378H66.5L67.2 344.3C67.7 325.7 68.1 285.1 68.1 254C68.2 222.9 68.5 171.7 69.5 82.8L75 78H283.5L286.2 71.2C287.7 67.5 292 59.8 295.9 54C299.8 48 306.4 39.9 311.1 35.2C315.7 30.6 323.8 24 329 20.5C334.2 17 341.4 12.8 345 11.2C348.6 9.6 354.4 7.3 358 6.1C361.6 5 368.3 3.1 373 2.1C378.3 0.900003 385.9 0.200003 393 0.100003ZM372 19.6C367.9 20.5 361.1 22.6 357 24.3C352.9 26 346.8 28.9 343.5 30.8C340.2 32.8 335.7 35.7 333.5 37.3C331.3 39 327.1 42.6 324.2 45.4C321.2 48.2 316.9 53 314.5 56C312.2 59 308.7 64.2 306.7 67.5C304.8 70.8 301.8 76.9 300.2 81C298.6 85.1 296.4 92.1 295.4 96.5C294 102.3 293.5 108.3 293.6 118.5C293.6 129.7 294 134.3 295.8 141.5C297.1 146.4 299.5 153.9 301.3 158C303 162.1 307 169.3 310.1 174C313.2 178.7 318.9 185.6 322.6 189.4C326.4 193.2 332.2 198.2 335.5 200.6C338.8 202.9 345.8 206.9 351 209.4C356.2 211.9 364.1 214.9 368.5 216.1C373.9 217.5 380.8 218.4 389.5 218.7C397.1 219 405.6 218.8 410 218.1C414.1 217.4 421.8 215.5 427 213.7C432.2 211.9 439.9 208.6 444 206.2C448.1 203.9 454.9 199.1 459 195.7C463.1 192.3 469.6 185.6 473.3 181C477 176.3 482.1 168.4 484.5 163.5C486.9 158.5 490.1 150.4 491.6 145.5C493.5 138.7 494.3 133.3 494.7 123.5C495.1 115.1 494.9 107.6 494 102.5C493.3 98.1 491.9 91.6 490.8 88C489.7 84.4 487 77.9 484.8 73.5C482.6 69.1 478.9 62.8 476.5 59.5C474.2 56.2 469.6 50.8 466.4 47.5C463.2 44.2 458 39.6 455 37.4C452 35.1 446.6 31.6 443 29.7C439.4 27.7 432.9 24.8 428.5 23.1C424.1 21.5 416.2 19.5 411 18.6C405.8 17.7 397.9 17.1 393.5 17.1C389.1 17.2 384.1 17.5 382.5 17.7C380.8 17.9 376.1 18.8 372 19.6ZM85.6 124.2C85.3 140.3 84.8 204 84.5 265.7L84 378C266.3 377.9 268.6 378 271 379.9L273.5 381.8C274.6 431 274.8 434 276.8 439C278 442 280.3 446.5 281.9 449C283.5 451.5 286.6 455.2 288.7 457.2C290.8 459.2 295.2 462.5 298.5 464.4C301.8 466.4 307.5 468.7 311.2 469.5C315 470.3 320.4 471 323.2 471C326.1 471 331.1 470.3 334.2 469.5C337.4 468.7 342.4 466.8 345.2 465.3C348.1 463.9 353.1 460.2 356.3 457.1C359.9 453.7 363.4 449 365.4 445C367.2 441.4 369.2 436 369.9 433C370.7 429 371 401.5 370.8 330.6L370.5 233.8C357.3 230 349.4 227 344.5 224.6C339.5 222.3 331.9 218 327.5 215C323.1 212 315.9 205.9 311.5 201.5C307.1 197.1 301.7 190.9 299.5 187.7L295.5 181.9C219.5 182 206.4 181.7 204.7 180.8C203.5 180.2 202 179 201.3 178.1C200.6 177.2 200.1 175.1 200.1 173.5C200.1 171.8 200.6 169.8 201.3 168.9C202 168 203.5 166.8 204.7 166.2C206.3 165.3 218.4 165 246.5 165C268.2 165 286 164.9 286 164.7C286 164.6 284.9 161.5 283.5 157.7C282.1 154 280.1 146.4 278.9 140.7C277.5 133.5 276.9 126.8 276.9 118C276.9 111.1 277.3 103.1 277.7 100.3L278.5 95H86.2L85.6 124.2ZM17 412.5C17 428.5 17.3 431.8 19.1 437.2C20.2 440.6 22.4 445.5 24 447.9C25.6 450.4 29.2 454.7 32.2 457.5C35.1 460.3 39.9 463.8 42.8 465.3C45.6 466.8 50.6 468.6 53.8 469.5C58.7 470.8 74.8 471 169.5 471L279.5 470.9C275.5 467.5 272.7 464.4 270.8 461.9C268.8 459.5 265.9 454.7 264.2 451.4C262.6 448.1 260.4 443 259.5 439.9C258.1 435.7 257.7 429.9 257.4 414.2L257 393.9H17V412.5ZM393 41.1C394.9 41 396.9 42 398.5 43.5C400.5 45.6 401 47 401 56.5L407.2 59.3C410.7 60.8 414.9 63.3 416.5 64.8C418.2 66.4 420.7 69.2 422.2 71.1C423.7 73 425.9 77.4 427 80.8C428.1 84.2 429 88.6 429 90.5C429 92.8 428.2 95 426.6 96.8C424.8 98.8 423.2 99.5 420.6 99.5C418.4 99.5 416.3 98.8 415 97.5C413.8 96.3 412.6 93.2 412 89.5C411.4 86 410 82.2 408.5 80.3C407.1 78.5 404.2 76.1 402 75C399.8 73.9 396.1 73.1 393.8 73.1C391.4 73.1 387.7 74 385.5 75C383.3 76.1 380.5 78.3 379.3 80C378 81.7 376.5 85 375.9 87.3C375 90.4 375 92.7 375.9 95.8C376.5 98.1 378.2 101.5 379.8 103.2C381.3 104.9 383.9 107 385.5 107.8C387.2 108.7 391.9 109.7 396 110.2C400.1 110.7 405.8 112.1 408.5 113.4C411.3 114.6 415.5 117.4 417.8 119.6C420.3 121.9 423.5 126.3 425.3 130C428.1 135.8 428.5 137.5 428.5 145C428.4 151.7 427.9 154.6 426.1 158.5C424.9 161.3 422.2 165.5 420.2 168C418.2 170.4 414.3 173.6 411.5 175.2C408.8 176.7 405.3 178.2 403.8 178.5C401.1 179 401 179.3 401 185C401 190.1 400.6 191.5 398.5 193.5C396.9 195.2 395 196 392.8 196C390.8 196 388.6 195.2 387.2 193.8C385.3 191.9 385 190.5 385 179.5L379.3 176.9C375.4 175.1 371.7 172.3 368.2 168.4C365 164.9 362.1 160.4 360.9 157.3C359.9 154.4 359 149.7 359 146.8C359 142.7 359.5 141 361.3 139.3C362.7 137.8 364.7 137 366.8 137C368.7 137 370.9 137.9 372.3 139.3C373.9 140.8 374.9 143.2 375.3 146.5C375.7 149.6 377 153.1 378.8 155.5C380.3 157.7 383.4 160.4 385.6 161.4C387.9 162.5 391.4 163.3 394.3 163.2C396.9 163.1 400.2 162.4 401.8 161.6C403.3 160.9 405.7 159 407.2 157.4C408.7 155.8 410.4 153.3 410.9 151.8C411.5 150.3 412 147.2 412 145C412 142.8 411.5 139.8 410.9 138.3C410.4 136.8 408.7 134.3 407.2 132.7C405.7 131.1 403.4 129.3 402 128.5C400.6 127.8 395.8 126.7 391.3 126.1C386.3 125.5 381 124 378 122.5C375.3 121.2 371.2 118.2 369 116C366.8 113.8 363.8 109.7 362.3 106.8C359.8 102.1 359.5 100.5 359.5 91.5C359.5 83.3 359.9 80.8 361.7 77C362.9 74.6 365.8 70.4 368.2 67.7C370.8 64.8 375 61.6 385.1 56.5V51.3C385.1 47 385.6 45.5 387.5 43.5C389 42 391 41 393 41V41.1ZM157.5 148.8C160.3 149.1 163.9 149.9 165.5 150.5C167.2 151.2 170.4 153.6 172.8 155.7C175.2 157.9 178 161.4 179.1 163.6C180.3 166.3 181 169.8 181 173.9C181 177.3 180.4 181.6 179.7 183.4C179 185.2 176.6 188.6 174.4 191C172.3 193.4 168.5 196.3 166 197.4C162.8 198.9 159.6 199.6 155 199.5C150.7 199.5 147 198.8 144 197.5C141.5 196.4 138 193.9 136.1 192.1C134.3 190.2 131.8 186.8 130.7 184.6C129.2 181.8 128.6 178.7 128.6 174.1C128.6 169.6 129.2 166.5 130.7 163.6C131.8 161.4 134.3 158.1 136.1 156.3C138 154.4 140.7 152.3 142.3 151.5C143.8 150.8 146.7 149.7 148.8 149.2C150.8 148.7 154.8 148.5 157.5 148.8ZM145.1 174.1C145 176.2 145.9 178.1 148 180.1C150 182.1 152 183.1 154 183.1C155.7 183.1 158.2 182.5 159.8 181.8C161.3 181 163.1 178.9 163.9 177C165 174.2 165 173.2 163.9 170.8C163.1 169.2 161.3 167.3 159.8 166.5C158.2 165.8 155.6 165.1 153.9 165.1C151.8 165.1 149.9 166.1 148 168.1C146.2 169.9 145.1 172.1 145.1 174.1ZM158 220.9C160.5 221.2 164.5 222.4 167 223.7C169.5 224.9 173 227.5 174.8 229.5C176.5 231.5 178.7 234.8 179.5 236.9C180.4 239 181 243.3 181 246.6C181 250.4 180.3 254.1 179.1 256.6C178 258.8 175.1 262.6 172.6 264.9C169.6 267.7 166.2 269.7 162.8 270.7C159.9 271.5 156.4 272.2 155 272.2C153.6 272.2 150.3 271.5 147.5 270.7C144.8 269.9 140.7 268 138.5 266.4C136.3 264.8 133.3 261.3 131.9 258.6C130.4 255.9 128.9 251.8 128.5 249.6C128.1 247 128.4 243.6 129.4 239.9C130.5 236.1 132.3 232.8 134.8 230C136.8 227.8 139.9 225.1 141.5 224.1C143.2 223 146.5 221.8 149 221.3C151.5 220.8 155.5 220.6 158 220.9ZM146.6 241.3C145.7 242.6 145 244.9 145 246.4C145 248.1 146.1 250.3 148 252.1C150.2 254.4 151.9 255.2 154.8 255.2C156.9 255.2 159.6 254.4 161 253.3C162.4 252.3 163.9 250.2 164.3 248.6C164.8 246.7 164.6 244.6 163.8 242.8C163.1 241.2 161.3 239.3 159.8 238.5C158.2 237.8 156 237.2 154.8 237.2C153.5 237.2 151.5 237.7 150.4 238.1C149.2 238.6 147.5 240.1 146.6 241.3ZM204.9 238.1H322L324.5 240.6C326.1 242.2 327 244.3 327 246.1C327 248 326.1 250.1 322.1 254.1H204L202 251.4C200.8 249.9 200 247.4 200 245.9C200.1 244.3 201.2 242 202.5 240.6L204.9 238.1ZM155 293.2C159.9 293.1 162.7 293.7 166.5 295.5C169.2 296.8 172.7 299.1 174.2 300.7C175.7 302.3 177.8 305.6 178.9 308.1C180.2 310.9 181 314.8 181 318.4C181 321.5 180.3 325.8 179.4 327.9C178.6 329.9 176 333.5 173.7 335.9C171.2 338.4 167.4 341 164.2 342.1C161.4 343.2 157.3 344.1 155.2 344.1C153.2 344.1 149.9 343.7 148 343.1C146.1 342.6 142.4 340.8 139.7 339.1C136.567 337.1 134 334.367 132 330.9C130.4 328 128.9 323.7 128.7 321.3C128.5 319 129 314.5 129.8 311.3C130.9 306.6 132.1 304.7 136.3 300.6C139.2 297.8 143.1 295 145 294.4C146.9 293.8 151.4 293.3 155 293.2ZM146 314.1C145.4 315.2 145 317.2 145 318.6C145 320 146.3 322.4 148 324.1C150.2 326.3 151.9 327.1 154.7 327.1C156.9 327.2 159.6 326.4 161 325.3C162.4 324.3 163.9 322.1 164.3 320.5C164.8 318.6 164.6 316.6 163.8 314.7C163.1 313.1 161.3 311.2 159.7 310.5C158.2 309.7 156 309.1 154.7 309.1C153.5 309.2 151.3 309.8 149.7 310.6C148.2 311.4 146.5 313 146 314.1ZM322.2 310.6L324.6 313.4C325.9 314.9 327 317 327 318.1C327 319.2 326.4 321.2 325.7 322.6C325.1 324 323.4 325.6 322 326.1C320.4 326.8 298.7 327 203.8 326.6L201.9 324.1C200.8 322.7 199.9 320.3 199.9 318.6C199.9 316.8 200.8 314.8 202.2 313.5C203.5 312.3 205.2 311.1 206 310.8C206.8 310.5 233.3 310.3 322.2 310.6Z" fill="black"/>
</g>
<defs>
<clipPath id="clip0_5617_2410">
<rect width="512" height="488" fill="white"/>
</clipPath>
</defs>
</svg>
