<svg width="512" height="470" viewBox="0 0 512 470" fill="none" xmlns="http://www.w3.org/2000/svg">
<g clip-path="url(#clip0_5617_2473)">
<path fill-rule="evenodd" clip-rule="evenodd" d="M469.5 0.89999L476.5 3.19999C480.3 4.49999 486.2 7.29999 489.4 9.49999C492.7 11.7 497.2 15.8 499.5 18.5C501.9 21.3 504.9 25.8 506.3 28.5C507.7 31.3 509.5 36.2 510.4 39.5C511.8 44.8 512 57.2 512 142.5C512 234 511.8 239.8 510.1 245C509.1 248 507.1 252.9 505.6 255.8C504.2 258.6 500.3 263.7 497 267C493.7 270.3 488.4 274.3 485.2 275.9C482.1 277.5 477 279.5 474 280.4C470.9 281.3 465 282 452 282V371L449.5 373.5C448 375.1 446 376 444 376C442.1 376 439.8 375 437.7 373.1C436 371.5 425.3 360.1 414 347.7C402.7 335.3 393.2 325.3 392.7 325.6C392.3 325.8 392 327.6 392 329.5C392 331.4 391.3 335.6 390.4 338.8C389.5 341.9 387.5 346.7 385.9 349.5C384.4 352.3 380.5 357.1 377.3 360.4C374.1 363.6 369.2 367.4 366.5 368.8C363.7 370.3 359 372.3 356 373.4C350.7 375.3 347.2 375.4 200 376L158.2 422C131.2 451.8 115.4 468.4 113.5 469.2C111.5 469.9 109.6 470 108 469.4C106.6 468.9 104.7 466.9 103.8 465C102.2 461.8 102 457.5 102 376H73.2C50.3 376 43.3 375.6 38.5 374.4C35.2 373.5 30 371.6 27 370C24 368.5 18.8 364.6 15.5 361.3C12.2 358 8.1 352.7 6.4 349.4C4.6 346.2 2.5 340.6 1.6 337C0.2 331.3 0 319.2 0 136.5L2.3 130.5C3.5 127.2 5.5 122.7 6.7 120.5C7.8 118.3 10.6 114.5 12.7 112C14.9 109.5 19.5 105.6 23.1 103.2C26.6 100.8 32.4 97.9 36 96.8C42 94.8 45.2 94.6 118.5 93.8L119.1 68.2C119.6 46 120 41.6 121.8 36C123 32.4 125.6 26.8 127.8 23.5C129.9 20.2 133.9 15.5 136.6 13.1C139.3 10.7 144.1 7.49999 147.3 5.89999C150.4 4.29999 155.4 2.29999 158.3 1.49999C162.9 0.19999 182.1 -1.00136e-05 469.5 0.89999ZM154.2 21.4C151.6 22.7 147.6 25.9 145.2 28.6C142.8 31.3 140 35.9 138.9 38.8C137.2 43.4 137 46.7 137 69V94C333.7 94 348.3 94.2 353.5 95.5C356.8 96.4 362 98.3 365 99.8C368 101.3 373.5 105.4 377.1 109C380.7 112.6 384.7 117.5 386 120C387.3 122.5 389.2 127 390.4 130C392.4 135.4 392.4 137.6 393 217.6L393.5 299.6L434.5 344.8C435.5 270.2 435.5 270 437.8 267.8C439.9 265.7 441.1 265.5 454.8 265C467.8 264.5 470.1 264.2 475 261.9C478 260.5 482.5 257.4 484.9 254.9C487.4 252.5 490.5 248 491.9 245L494.5 239.5C494.9 82.7 494.7 47.8 494 44.5C493.5 41.8 491.5 37 489.8 34C487.9 31 484.3 26.9 481.5 24.8C478.8 22.7 474.5 20.3 472 19.5C468.1 18.2 448.4 17.9 317 17.5C220 17.2 165.2 17.4 162.8 18C160.7 18.6 156.9 20.1 154.3 21.4H154.2ZM35.9 115.2C32.9 116.6 28.6 119.8 26.5 122.2C24.3 124.5 21.4 129 20 132L17.4 137.5V333.5C21.4 342 24.6 346.5 27 349C29.4 351.4 33.9 354.6 36.9 356C42.4 358.5 42.5 358.5 77.9 359C101.2 359.3 114.1 359.9 115.4 360.6C116.5 361.2 117.7 362.5 118.2 363.4C118.6 364.3 118.9 381.4 118.9 401.5C118.9 421.6 119.2 438 119.7 438C120.1 438.1 135.6 421.3 154.2 400.8C172.8 380.3 189.5 362.5 191.2 361.2L194.4 358.9C293.6 358.9 328.9 358.5 336.9 358.1C349.8 357.4 352 357 356.7 354.7C359.5 353.2 363.6 350.3 365.7 348.1C367.7 346 370.5 342.1 371.9 339.4L374.4 334.5L374.9 138C371.5 129.1 368.9 124.7 367 122.6C365 120.5 361.6 117.6 359.4 116.2C357.2 114.8 353.2 113.1 350.4 112.3C346.4 111.3 320.4 111.1 213.9 111.2C141.6 111.3 73.2 111.6 61.9 112C42.3 112.5 41.2 112.6 35.9 115.2ZM140.7 179.1C186.2 179 197.4 179.3 199.7 180.4C201.2 181.1 203 183 203.7 184.6C204.7 186.8 204.7 188.2 203.9 190.5C203.2 192.1 202 194 201.1 194.7C199.8 195.6 185.2 195.9 81.9 196L79.4 193.5C78 192.1 76.9 189.8 76.9 188.3C76.9 186.7 77.6 184.5 78.5 183.2C79.4 181.9 81.1 180.5 82.3 180C83.4 179.5 109.7 179.1 140.7 179.1ZM195.4 230.1C265.6 230.1 306.8 230.4 309.2 231C312.1 231.8 313.2 232.8 314.4 235.5C315.7 238.6 315.7 239.4 314.4 242.5C313.2 245.2 312.1 246.2 309.2 247C306.7 247.6 265.5 247.9 81.7 247.5L79.3 244.8C78 243.2 76.9 240.8 76.9 239.3C76.8 237.7 77.8 235.3 78.9 233.8C80 232.3 82 230.9 83.2 230.7C84.4 230.5 134.9 230.2 195.4 230.1ZM81.8 282L310.4 281.9L312.5 284.2C313.7 285.5 314.9 287.3 315.3 288.3C315.6 289.2 315.2 291.6 314.4 293.5C313.2 296.2 312 297.2 309.2 298C306.6 298.8 269.3 299 81.7 298.5L79.3 295.8C77.9 294.1 76.9 291.8 76.9 290C77 288.1 78 285.9 79.4 284.5L81.8 282Z" fill="black"/>
</g>
<defs>
<clipPath id="clip0_5617_2473">
<rect width="512" height="470" fill="white"/>
</clipPath>
</defs>
</svg>
