<svg width="342" height="512" viewBox="0 0 342 512" fill="none" xmlns="http://www.w3.org/2000/svg">
<path fill-rule="evenodd" clip-rule="evenodd" d="M172.618 0.646054C199.102 0.538367 200.717 0.646054 206.53 4.95355V21.6451C206.53 38.1213 206.53 38.3367 209.006 38.7674C210.298 39.0905 217.403 40.5981 224.832 42.1057C232.26 43.721 243.349 46.7363 249.593 48.7823C255.837 50.8284 267.464 55.6743 275.43 59.5511C283.397 63.3202 294.809 69.6737 300.73 73.5505C306.651 77.4272 315.802 83.9961 320.969 88.3036C326.244 92.5034 330.766 96.9186 331.089 98.1032C331.412 99.2878 331.412 101.118 330.981 102.195C330.658 103.165 321.292 116.302 310.311 131.163C299.33 146.132 289.21 159.27 288.026 160.347C286.734 161.423 284.904 162.285 284.043 162.285C283.182 162.285 278.337 158.947 273.277 154.962C268.217 150.87 260.789 145.378 256.59 142.578C252.392 139.778 243.779 134.932 237.212 131.702C230.645 128.363 221.171 124.271 206.53 119.102V216.559L216.434 219.144C221.925 220.544 231.506 223.236 237.75 225.174C243.995 227.113 253.468 230.343 258.744 232.389C264.019 234.543 272.524 238.312 277.583 240.789C282.643 243.374 290.395 247.789 294.809 250.804C299.223 253.819 306.436 259.634 310.849 263.834C315.156 268.034 320.754 274.388 323.338 277.941C325.814 281.495 329.366 287.31 331.197 290.864C332.919 294.417 335.611 301.202 337.118 305.94C338.625 310.678 340.455 318.97 341.209 324.247C341.962 330.277 342.178 339.215 341.855 347.938C341.424 355.584 340.24 366.03 339.056 371.091C337.979 376.152 335.826 383.367 334.319 387.244C332.919 391.121 330.335 396.936 328.721 400.167C327.106 403.397 323.445 409.428 320.539 413.627C317.74 417.827 311.065 425.365 305.682 430.642C300.299 435.811 292.117 442.488 287.488 445.503C282.966 448.518 275.107 452.933 270.048 455.302C264.988 457.672 256.052 461.225 250.131 463.271C244.21 465.21 233.767 467.794 226.985 468.979C220.202 470.163 212.774 471.456 206.53 472.317V506.777L203.516 508.931C200.717 511.085 199.102 511.192 172.833 511.085C154.209 511.085 144.412 510.654 142.689 509.9C141.398 509.146 139.998 508.069 139.567 507.423C139.137 506.777 138.706 498.162 138.706 470.163L134.615 469.517C132.462 469.194 125.034 467.686 118.251 466.179C111.469 464.779 100.057 461.656 92.952 459.287C85.8466 456.918 72.2819 451.21 62.808 446.58C53.3342 441.842 40.5231 434.626 34.279 430.534C28.0349 426.442 18.1304 419.012 12.317 414.058C6.39585 409.105 1.12066 404.259 0.582374 403.397C0.0440898 402.536 -0.171224 400.597 0.151747 399.09C0.582374 397.582 9.84087 385.198 20.8219 371.629C31.8029 358.061 42.5686 345.246 44.614 343.415C47.4131 340.723 48.8127 340.077 50.6428 340.615C52.0424 340.938 56.9946 344.707 61.7315 348.8C66.4684 352.892 75.4039 359.676 81.648 363.768C87.8921 367.86 97.7965 373.568 103.718 376.475C109.639 379.275 119.436 383.367 125.464 385.521C131.601 387.675 136.984 389.398 137.63 389.398C138.383 389.398 138.598 371.952 138.168 287.848L123.634 283.433C115.668 280.956 104.256 277.08 98.3348 274.711C92.4137 272.341 82.9399 268.142 77.3417 265.234C71.7436 262.327 63.9923 257.696 60.1166 255.004C56.241 252.312 50.3198 247.358 46.7672 244.02C43.3222 240.789 38.2623 235.189 35.5709 231.636C32.7718 228.082 28.7885 221.513 26.5277 217.098C24.2669 212.683 21.1448 204.175 19.6376 198.253C17.4845 190.068 16.7309 183.822 16.3003 172.408C15.8696 161.316 16.1926 154.531 17.5922 146.563C18.5611 140.64 20.4989 132.24 22.0061 127.933C23.4056 123.733 26.3124 116.625 28.4655 112.318C30.6186 108.118 34.6019 101.226 37.401 97.134C40.0924 93.0419 46.0136 85.9345 50.4275 81.4116C54.8414 76.7811 62.5927 70.1045 67.6526 66.3354C72.7125 62.674 82.0786 57.0743 88.6457 53.8437C95.2128 50.7207 104.902 46.6286 110.177 44.9056C115.452 43.1826 124.065 40.9212 138.706 37.7982V21.6451C138.706 12.707 139.137 4.95355 139.567 4.41511C139.998 3.76899 141.29 2.69212 142.474 2.04599C143.981 1.0768 152.702 0.646054 172.618 0.646054ZM153.563 31.9831C153.24 46.6286 153.025 48.3516 151.087 50.0746C149.902 51.0438 146.027 52.336 142.474 52.7668C138.921 53.1975 130.74 54.9205 124.172 56.6435C117.605 58.2588 107.916 61.4895 102.641 63.7509C97.3659 66.12 89.2916 70.2122 84.8777 73.012C80.4638 75.8119 73.5737 80.7655 69.4828 83.9961C65.4995 87.3344 59.363 93.5803 55.8103 97.7801C52.3653 102.088 47.3055 109.303 44.8293 113.718C42.2456 118.133 38.9082 125.456 37.401 129.871C35.7862 134.286 33.7407 142.04 32.7718 147.101C31.8029 152.162 31.0493 161.1 31.0493 167.023C31.0493 172.946 31.5876 180.915 32.1258 184.792C32.7718 188.668 34.279 194.914 35.5709 198.791C36.7551 202.668 39.5542 209.237 41.7073 213.329C44.3987 218.605 48.382 223.774 55.2721 230.666C60.5473 235.943 67.6526 242.081 70.8823 244.235C74.112 246.389 80.6791 250.158 85.416 252.527C90.1529 255.004 98.8731 258.881 104.794 261.142C110.715 263.403 121.373 267.065 128.479 269.111C135.584 271.265 143.443 273.418 145.919 274.064C149.364 274.926 150.979 276.111 152.163 278.48C153.563 281.28 153.778 290.433 153.778 340.4C153.778 390.367 153.563 399.52 152.163 402.32C151.194 404.259 149.472 405.766 147.857 406.089C146.35 406.412 142.151 405.874 138.383 405.012C134.723 404.043 127.833 401.997 123.096 400.49C118.359 398.982 109.639 395.536 103.718 392.951C97.7965 390.367 88.3227 385.413 82.7246 382.075C77.1264 378.844 67.545 372.275 61.4085 367.645C55.3797 363.014 50.3199 359.353 50.1045 359.461C49.8892 359.676 42.4609 368.722 33.633 379.598L17.5922 399.413C22.652 403.397 27.4966 407.166 31.5876 410.289C35.6785 413.52 42.9992 418.473 47.7361 421.381C52.473 424.396 61.1932 429.242 67.1143 432.15C73.0354 435.165 82.4016 439.365 87.7844 441.518C93.2749 443.672 102.964 446.903 109.316 448.626C115.775 450.457 127.187 452.933 134.938 454.118C144.95 455.733 149.579 457.025 151.087 458.425C153.025 460.364 153.24 462.087 153.455 478.24L153.778 496.008H191.458C191.458 470.917 191.781 462.948 192.212 461.979C192.75 461.01 194.365 459.502 195.98 458.748C197.702 457.887 200.609 457.241 202.439 457.241C204.377 457.241 210.836 456.487 216.757 455.626C222.679 454.764 232.152 452.718 237.75 451.21C243.349 449.595 252.392 446.472 257.667 444.103C262.942 441.842 271.124 437.749 275.753 434.842C280.49 432.042 287.919 426.335 292.44 422.135C297.069 417.935 303.098 411.474 306.005 407.597C308.804 403.828 313.003 397.044 315.263 392.628C317.524 388.213 320.539 380.675 322.046 375.937C323.553 371.199 325.383 362.691 326.029 357.092C326.89 350.846 327.213 342.231 326.783 335.016C326.46 328.447 325.168 319.293 323.984 314.555C322.692 309.817 319.893 302.279 317.74 297.863C315.586 293.448 311.065 286.449 307.727 282.249C304.39 278.049 297.823 271.803 293.194 268.249C288.457 264.588 281.244 259.742 277.045 257.481C272.847 255.111 265.418 251.45 260.358 249.296C255.299 247.143 246.148 243.697 239.904 241.543C233.66 239.497 221.279 236.051 212.451 233.789C200.178 230.774 195.764 229.159 193.826 227.22L191.458 224.636C191.458 134.502 191.781 107.58 192.212 106.611C192.75 105.641 194.365 104.134 195.98 103.38C198.563 102.088 200.071 102.195 207.284 104.134C211.913 105.318 220.31 108.01 225.908 110.164C231.506 112.21 241.195 116.625 247.44 119.856C253.684 123.194 262.081 128.148 266.28 130.948C270.478 133.748 275.646 137.624 277.799 139.455C280.06 141.286 282.213 142.578 282.643 142.363C283.182 142.147 290.287 132.886 298.577 121.794L313.649 101.549C307.835 96.7033 301.053 91.965 294.809 87.6575C288.564 83.4577 277.153 76.9965 269.509 73.2274C261.866 69.566 250.239 64.7201 243.672 62.5663C237.105 60.4126 225.478 57.505 217.834 55.9974C210.19 54.5975 202.008 53.1975 199.748 52.8745C197.487 52.5514 194.795 51.2592 193.611 49.8592C191.566 47.7055 191.458 46.0902 191.458 31.5524V15.7223H153.886L153.563 31.9831Z" fill="black"/>
<path d="M186.075 0.323062C178.108 0.538437 165.512 0.538437 158.084 0.323062C150.656 0.215375 157.223 0 172.618 0C188.013 0 194.041 0.215375 186.075 0.323062Z" fill="black" fill-opacity="0.2"/>
<path d="M186.075 511.838C178.108 512.054 165.512 512.054 158.084 511.838C150.656 511.731 157.223 511.515 172.618 511.515C188.013 511.515 194.041 511.731 186.075 511.838Z" fill="black" fill-opacity="0.2"/>
<path d="M207.283 30.2602C207.175 34.46 206.96 30.7986 206.96 22.1836C206.96 13.5686 207.175 10.2303 207.283 14.6455C207.498 19.0607 207.498 26.0604 207.283 30.2602Z" fill="black" fill-opacity="0.5"/>
<path d="M207.283 191.791C207.175 205.468 207.068 194.807 207.068 168.1C207.068 141.394 207.175 130.302 207.283 143.332C207.498 156.362 207.498 178.115 207.283 191.791Z" fill="black" fill-opacity="0.5"/>
<path d="M207.283 496.547C207.175 501.285 206.96 497.947 206.96 489.009C206.96 480.071 207.175 476.194 207.283 480.394C207.498 484.594 207.498 491.809 207.283 496.547Z" fill="black" fill-opacity="0.5"/>
<path d="M138.383 29.7217C138.275 34.1369 138.06 31.014 138.06 22.722C138.06 14.4301 138.168 10.7687 138.383 14.6455C138.598 18.5222 138.598 25.3065 138.383 29.7217Z" fill="black" fill-opacity="0.8"/>
<path d="M138.168 388.859L137.629 338.031C137.306 310.032 137.414 287.525 137.845 287.956C138.275 288.387 138.598 311.217 138.168 388.859Z" fill="black" fill-opacity="0.8"/>
<path d="M138.383 495.47C138.275 500.208 138.06 496.547 138.06 487.393C138.06 478.24 138.275 474.363 138.383 478.778C138.598 483.194 138.598 490.732 138.383 495.47Z" fill="black" fill-opacity="0.8"/>
<path d="M153.455 37.2598C153.347 41.675 153.132 38.5521 153.132 30.2601C153.132 21.9682 153.24 18.3068 153.455 22.1836C153.67 26.0603 153.67 32.8446 153.455 37.2598Z" fill="black" fill-opacity="0.2"/>
<path d="M153.455 368.937C153.347 385.198 153.24 372.168 153.24 339.862C153.24 307.555 153.347 294.202 153.455 310.247C153.67 326.293 153.67 352.676 153.455 368.937Z" fill="black" fill-opacity="0.2"/>
<path d="M153.455 487.932C153.347 492.67 153.132 489.009 153.132 479.855C153.132 470.702 153.347 466.825 153.455 471.24C153.67 475.655 153.67 483.194 153.455 487.932Z" fill="black" fill-opacity="0.2"/>
<path d="M192.212 37.2598C192.104 41.675 191.889 38.5521 191.889 30.2601C191.889 21.9682 191.996 18.3068 192.212 22.1836C192.427 26.0603 192.427 32.8446 192.212 37.2598Z" fill="black" fill-opacity="0.5"/>
<path d="M192.212 194.484C192.104 210.206 191.996 197.606 191.996 166.485C191.996 135.363 192.104 122.548 192.212 137.948C192.427 153.347 192.427 178.761 192.212 194.484Z" fill="black" fill-opacity="0.5"/>
<path d="M192.212 489.009C192.104 493.208 191.889 489.547 191.889 480.932C191.889 472.317 192.104 468.979 192.212 473.394C192.427 477.809 192.427 484.809 192.212 489.009Z" fill="black" fill-opacity="0.5"/>
<path d="M181.768 15.3993C176.17 15.6147 167.45 15.6147 162.39 15.3993C157.33 15.2916 161.96 15.0762 172.618 15.0762C183.276 15.0762 187.367 15.2916 181.768 15.3993Z" fill="black" fill-opacity="0.7"/>
<path d="M181.768 496.762C176.17 496.978 167.45 496.978 162.39 496.762C157.33 496.654 161.96 496.439 172.618 496.439C183.276 496.439 187.367 496.654 181.768 496.762Z" fill="black" fill-opacity="0.7"/>
<path fill-rule="evenodd" clip-rule="evenodd" d="M146.026 101.872C146.672 101.872 148.502 103.057 152.701 107.257V158.193C152.809 207.621 152.701 209.129 150.548 212.037C149.364 213.652 147.533 214.944 146.457 214.944C145.488 214.944 141.182 213.76 137.091 212.144C132.892 210.637 125.679 207.406 120.942 204.929C115.99 202.345 109.423 197.606 105.547 193.945C100.918 189.53 97.5806 185.222 95.3198 180.484C92.4131 174.454 91.8748 171.977 91.4442 163.254C91.1212 155.07 91.4442 151.516 93.2744 145.486C94.6739 140.855 97.473 135.04 100.81 130.409C103.717 126.317 108.669 120.718 111.899 118.133C115.129 115.656 119.866 112.21 122.557 110.703C125.248 109.087 131.277 106.503 136.014 104.888C140.751 103.272 145.273 101.872 145.919 101.872L146.026 101.872ZM131.493 123.087C128.263 124.81 122.988 128.579 119.758 131.486C115.667 135.148 112.653 139.24 110.069 144.409C106.839 151.085 106.408 152.916 106.408 160.562C106.408 167.562 106.947 170.254 109.208 174.884C111.002 178.618 113.765 181.956 117.497 184.899C120.619 187.376 126.217 190.93 129.878 192.761C133.538 194.591 136.875 195.883 137.091 195.56C137.414 195.237 137.629 178.223 137.414 157.547L137.198 120.071L131.493 123.087ZM199.424 289.248C200.716 289.248 207.606 291.187 214.711 293.664C221.817 296.033 232.044 300.34 237.319 303.14C242.702 305.832 249.7 310.571 252.93 313.586C256.267 316.601 260.465 321.985 262.296 325.431C264.126 328.985 266.279 334.908 267.033 338.785C267.786 342.661 268.109 348.692 267.786 352.246C267.463 355.799 266.387 361.399 265.418 364.63C264.449 367.86 261.327 373.999 258.528 378.091C255.729 382.29 250.561 387.998 247.008 390.798C243.456 393.598 237.212 397.582 233.013 399.628C228.922 401.674 220.632 404.582 214.711 406.089C208.79 407.597 202.438 408.782 200.501 408.782C198.455 408.782 196.087 407.92 194.795 406.628C192.749 404.582 192.642 403.074 192.642 349.015C192.642 295.064 192.749 293.556 194.795 291.402C195.979 290.218 198.132 289.248 199.424 289.248ZM207.714 392.628C212.343 391.552 216.864 390.152 220.632 388.644C224.508 387.244 229.891 384.66 232.475 382.937C235.166 381.214 239.365 377.768 241.841 375.183C244.425 372.706 247.762 367.645 249.377 364.091C250.992 360.322 252.499 354.938 252.714 351.169C253.145 346.861 252.607 342.661 251.315 338.246C249.915 333.293 248.193 330.493 243.994 326.078C240.98 322.955 235.274 318.755 231.398 316.709C227.63 314.77 221.171 311.863 217.187 310.355C213.204 308.848 209.436 307.555 208.79 307.555C208.144 307.555 207.714 322.524 207.714 350.092V392.628Z" fill="black"/>
<path d="M153.455 183.715C153.347 197.606 153.239 186.515 153.239 158.947C153.239 131.379 153.347 119.964 153.455 133.64C153.67 147.316 153.67 169.823 153.455 183.715Z" fill="black" fill-opacity="0.2"/>
<path d="M192.211 375.398C192.104 390.475 191.996 378.629 191.996 349.015C191.996 319.401 192.104 307.017 192.211 321.555C192.427 336.093 192.427 360.322 192.211 375.398Z" fill="black" fill-opacity="0.5"/>
<path d="M207.284 371.091C207.176 383.26 207.068 373.568 207.068 349.553C207.068 325.539 207.176 315.632 207.284 327.478C207.499 339.323 207.499 358.922 207.284 371.091Z" fill="black" fill-opacity="0.5"/>
<path d="M138.383 178.33C138.276 188.668 138.168 179.73 138.168 158.408C138.168 137.086 138.276 128.579 138.383 139.563C138.599 150.547 138.599 167.992 138.383 178.33Z" fill="black" fill-opacity="0.8"/>
</svg>
