<svg width="512" height="512" viewBox="0 0 512 512" fill="none" xmlns="http://www.w3.org/2000/svg">
<path d="M44.5 104.4C42.1999 106.8 42 107.6 42 117.5V128H31.5C21.6001 128 20.8 128.2 18.5001 130.5L16 132.9V269V405.1L18.5001 407.499L20.9 410.001H256H491.1L493.5 407.499L496 405.1V293V180.9L493.5 178.5C490.3 175.2 485.7 175.2 482.5 178.5L480 180.9V287.5V394.001L433.8 393.9L387.5 393.8L425.001 388.9C445.6 386.299 463.099 384.099 463.8 384C464.5 384 466.2 382.901 467.5 381.5L469.999 379.1V261.499V144H475H480V149.5C480 154.1 480.401 155.5 482.5 157.5C485.7 160.8 490.3 160.8 493.5 157.5C495.901 155.199 496 154.4 496 144C496 133.6 495.901 132.8 493.5 130.5C491.201 128.2 490.4 128 480.5 128H469.999V117.5C469.999 107.6 469.801 106.8 467.5 104.4L465 101.9L377.3 102.2L289.5 102.5L283.6 104.8C273.8 108.5 265.1 114.8 258.7 123L256 126.5L253.3 123C246.999 114.9 238.3 108.5 228.4 104.8L222.5 102.5L134.7 102.2L46.9999 101.9L44.5 104.4ZM227.2 121.8C235 125.6 241 131.8 244.9 140L247.499 145.5L247.8 269.3L248.001 393.199L244.299 392.6C238 391.6 96.2 373.999 94.5 373.999C91.7999 373.999 88 378.6 88 382C88 386.799 91.6 389.7 98.6001 390.499C125.2 393.6 124.6 393.699 77.3 393.9L32 394.001V269V144H37H42V261.499V379.1L44.3 381.399C46 383.099 48.5999 384 54.3 384.8C65.2 386.5 66.8 386.299 69.4999 383.5C74.1999 378.9 71.8 371.9 65.3 370.5C63.7 370.101 61.4999 369.7 60.3 369.4L58 369V243.5V118L139.3 118.2L220.5 118.5L227.2 121.8ZM453.999 243.5V368.9L450.799 369.5C449 369.8 407.9 374.999 359.499 381C311.1 387.101 269.8 392.3 267.701 392.699L263.999 393.3L264.2 269.399L264.501 145.5L266.8 140.6C271.401 130.5 279.2 123.4 289.3 119.9C294.1 118.2 300.201 118.1 374.301 118H453.999V243.5Z" fill="black"/>
<path d="M129.3 178.9C127.6 180 125.6 181.801 125.1 182.9C124.5 183.999 124 191.099 124 199.4V213.999H109.2C87.1 213.999 87 214.1 87 242C87 269.899 87.1 270 109.2 270H124V284.8C124 306.799 124.3 307 152.501 307C179.5 307 179.299 307.2 180 285.6L180.5 270.5L195.7 270C210.799 269.5 211 269.5 213.7 266.699L216.501 263.999V242V220L213.7 217.3C211 214.499 210.799 214.499 195.7 213.999L180.5 213.5L180 198.301C179.5 183.301 179.5 182.999 176.7 180.299L174 177.5L153.199 177.2C134.1 177 132.3 177.099 129.3 178.9ZM164 206.6C164 228.5 165.5 229.999 187.4 229.999H201.001V242V254H187.4C165.5 254 164 255.5 164 277.4V291H152.001H140V277.4C140 255.5 138.5 254 116.6 254H103V242V229.999H116.6C138.5 229.999 140 228.5 140 206.6V193H152.001H164V206.6Z" fill="black"/>
<path d="M298.5 194.5C296.9 196 295.999 198.1 295.999 199.999C295.999 201.9 296.9 204 298.5 205.5L300.899 208H364H427.1L429.5 205.5C431.099 204 432 201.9 432 199.999C432 198.1 431.099 196 429.5 194.5L427.1 192H364H300.899L298.5 194.5Z" fill="black"/>
<path d="M298.5 234.501C296.9 236 295.999 238.1 295.999 240C295.999 241.9 296.9 244 298.5 245.499L300.899 248.001H364H427.1L429.5 245.499C431.099 244 432 241.9 432 240C432 238.1 431.099 236 429.5 234.501L427.1 231.999H364H300.899L298.5 234.501Z" fill="black"/>
<path d="M298.5 274.5C296.9 276 295.999 278.1 295.999 280.001C295.999 281.9 296.9 284 298.5 285.5L300.899 288H364H427.1L429.5 285.5C431.099 284 432 281.9 432 280.001C432 278.1 431.099 276 429.5 274.5L427.1 272H364H300.899L298.5 274.5Z" fill="black"/>
</svg>
