<svg width="428" height="512" viewBox="0 0 428 512" fill="none" xmlns="http://www.w3.org/2000/svg">
<g clip-path="url(#clip0_5617_2423)">
<path fill-rule="evenodd" clip-rule="evenodd" d="M57.3001 0H302.5L364.1 61.7C398.1 95.7 426.3 124.5 426.9 125.7C427.7 127.4 428 174 428 290.5C428 443.5 427.9 453.2 426.3 456C425.3 457.7 423.1 459.5 421.5 460C419.8 460.6 409 461 376 461L376.1 506.5L370.7 512L6.50011 512.1L1.30011 507.5L0.500109 454.5C0.100109 425.3 -0.0998915 320.3 0.200109 221C0.700109 70 1.00011 40.1 2.10011 38.3C2.90011 37.1 4.50011 35.6 5.80011 35C7.10011 34.4 17.0001 34 52.0001 34L51.7001 5.3L54.5001 2.6L57.3001 0ZM69.0001 444H410V137L295.9 136.5L291 131V17H69.0001V444ZM308 119H397.5C329 50.1 308.8 30 308.5 30C308.3 30 308 50.1 308 74.5V119ZM18.0001 495H359V461L56.9001 460.5L52.0001 455V51H18.0001V495ZM166 77L171 82V140L165.5 145.1L109 145L103 139V111.5C103 92.6 103.4 83.3 104.2 81.8C104.8 80.5 106.1 79 106.9 78.3C108.1 77.4 116.3 77.1 166 77ZM120 128H154V94H120V128ZM121.2 162.3C131 162.5 132.1 162.7 134.5 165C136.3 166.7 137.1 168.6 137.1 170.8C137 172.9 136.1 174.9 134.6 176.5C132.2 178.9 131.6 179 120.3 179.1C109.9 179.1 108.3 178.8 106.3 177.1C105 175.9 103.8 174 103.4 172.8C103.1 171.5 103.5 169.3 104.5 167.6C105.4 165.9 107.1 164 108.3 163.3C109.9 162.4 113.7 162.1 121.2 162.3ZM371.2 162.5L373.6 165.3C374.9 166.8 376 169.3 376.1 170.8C376.1 172.5 375 174.6 370.8 179H265.6C173.6 179.1 160.2 178.9 158.3 177.5C157 176.7 155.6 174.9 155 173.5C154.3 171.7 154.4 170.2 155.7 167.5C156.6 165.6 158.3 163.6 159.4 163.1C160.7 162.5 203.6 162.2 371.2 162.5ZM121.9 213.3C131.7 213.5 132.3 213.7 134.6 216.3C136 217.9 137 220.3 137 222C137 223.9 136.1 226 134.6 227.5C132.2 229.9 131.6 230 120.1 230C109.4 230 107.8 229.8 106 228C104.9 226.9 103.8 225 103.5 223.8C103.2 222.5 103.4 220.3 104 218.8C104.6 217.3 106.5 215.4 108.3 214.5C110.7 213.4 114.3 213.1 121.9 213.3ZM371.2 213.5L373.6 216.3C375 217.9 376 220.3 376 222C376 223.9 375.1 226 371.1 230L159.5 230.1L157.4 227.8C156.3 226.6 155 224.7 154.7 223.8C154.3 222.8 154.6 220.6 155.3 218.9C156 216.9 157.7 215.2 159.5 214.4C161.9 213.4 183.7 213.1 371.2 213.5ZM120 265C131.5 265 132.1 265.1 134.5 267.5C136.1 269.1 137 271.2 137 273C137 274.8 136 277.2 134.6 278.8C132.4 281.4 131.6 281.6 122.9 281.9C117.6 282.1 111.9 281.8 109.8 281.2C107.1 280.4 105.6 279.1 104.4 276.8C103.6 275 103.1 272.5 103.4 271.3C103.8 270 104.9 268.1 106 267C107.8 265.3 109.4 265 120 265ZM371 265L373.5 267.5C375.1 269.1 376 271.2 376 273C376 274.8 375 277.2 371.2 281.5L267.9 281.8C197.9 282 163.3 281.8 160.8 281.1C157.9 280.3 156.7 279.2 155.5 276.5C154.3 273.7 154.3 272.6 155.3 270.4C156 268.9 157.2 267.1 158 266.4C159.2 265.4 180 265.1 371 265ZM120.2 316C131.5 316 132.1 316.2 134.5 318.5C136.1 320.2 137 322.2 137.1 324.3C137.1 326.5 136.3 328.3 134.5 330C132.1 332.3 131 332.6 121.2 332.8C113.9 333 109.7 332.7 108 331.8C106.7 331.1 104.9 329.1 104.2 327.5C103.4 325.9 103.1 323.5 103.4 322.3C103.8 321 105 319.1 106.2 318C108.2 316.3 109.8 316 120.2 316ZM159.4 316H371L373.6 318.8C375 320.4 376.1 322.7 376.1 324.3C376 325.8 374.9 328.3 371.2 332.5L266.9 332.8C184.4 333 161.9 332.8 159.6 331.8C157.9 331.1 156.1 329.2 155.3 327.3C154.6 325.5 154.3 323.2 154.7 322.3C155 321.3 156.2 319.5 157.3 318.3L159.4 316ZM120.3 366.9C131.4 366.9 131.7 367 134.4 369.7C136.3 371.6 137.2 373.5 137.1 375.5C137.1 377.1 136.5 379.2 135.8 380.1C135.2 380.9 133.6 382.2 132.4 382.8C131.1 383.5 125.6 384 119.6 384C109.3 384 109.1 383.9 106.1 381C104.2 379.1 103.1 377 103.2 375.4C103.2 374 104.5 371.5 106.1 369.9C108.9 367 109.1 367 120.3 366.9ZM160.2 367H264.7C342.1 367 369.7 367.3 371.4 368.1C372.6 368.8 374.2 370 374.8 370.9C375.5 371.8 376 373.8 376 375.5C376 377.1 375.5 379.2 374.8 380.1C374.2 380.9 372.6 382.2 371.4 382.8C369.7 383.7 342.1 384 160.1 384L157.4 381.6C155.3 379.8 154.6 378.2 154.6 375.4C154.6 372.6 155.3 371.2 157.4 369.4L160.2 367Z" fill="black"/>
</g>
<defs>
<clipPath id="clip0_5617_2423">
<rect width="428" height="512" fill="white"/>
</clipPath>
</defs>
</svg>
