<svg width="418" height="416" viewBox="0 0 418 416" fill="none" xmlns="http://www.w3.org/2000/svg">
<g clip-path="url(#clip0_5923_1863)">
<path fill-rule="evenodd" clip-rule="evenodd" d="M22.5 0.1L235 0L240.3 2.4C243.3 3.8 247.3 6.8 249.8 9.7C252.5 12.6 254.7 16.4 255.6 19.5C256.8 23.6 257 35.5 257 88C257 144.1 256.8 152.1 255.4 157C254.1 161.1 252.4 163.8 248.6 167.6C244.8 171.4 242.1 173.1 238 174.4C233 175.9 222.2 176 129 176C35.8 176 25 175.9 20 174.4C15.9 173.1 13.2 171.4 9.4 167.6C5.6 163.8 3.9 161.1 2.6 157C1.2 152.1 1 144.1 1 88C1 35.5 1.2 23.6 2.4 19.5C3.3 16.4 5.5 12.6 8.2 9.7C10.6 7 14.7 3.7 17.5 2.4L22.5 0.1ZM19.9 20.5C17.7 23 17.5 24.2 17.2 35.6L17 48.1H241L240.5 23.1L234 16.6C73.2 16.3 25.5 16.5 24.4 17C23.2 17.4 21.1 19 19.9 20.5ZM17.2 108.6L17.5 153L24 159.6H234L240.5 153L240.6 64.1H16.9L17.2 108.6ZM288.5 240.1C382.4 240.1 393.1 240.2 398 241.7C402.1 242.9 404.8 244.7 408.6 248.5C412.4 252.3 414.2 255 415.4 259.1C416.8 263.9 417 272 417 328.1C417 380.6 416.8 392.5 415.6 396.6C414.7 399.7 412.5 403.4 409.8 406.4C407.3 409.3 403.4 412.3 395 416.1H183L177.8 413.7C174.7 412.3 170.8 409.3 168.2 406.4C165.6 403.4 163.3 399.7 162.5 396.6C161.3 392.5 161 380.6 161 328.1C161 272 161.2 263.9 162.6 259.1C163.9 255 165.6 252.3 169.4 248.5C173 244.9 176 242.9 179.5 241.8C183.9 240.4 197.2 240.2 288.5 240.1ZM179.9 260.5C177.7 263 177.5 264.3 177.3 275.7L177 288.1H401L400.5 263.1L394 256.6C233.2 256.3 185.6 256.6 184.4 257C183.2 257.4 181.2 259 179.9 260.5ZM177.2 348.6L177.5 393.1L184.1 399.6H394L400.5 393.1L400.6 304.1H177L177.2 348.6ZM308.4 96.1L352.9 140.6V219.1L350.5 221.6C348.9 223.2 346.9 224.1 345 224.1C343.1 224.1 341 223.2 336.9 219.1V147.6L301.4 112.1H289.7C278.5 112.1 277.8 112 275.4 109.6C273.8 108 273 106 273 104.1C273 102.2 274 100 275.4 98.6C277.8 96.2 278.2 96.1 308.4 96.1ZM72.9 192.1C74.8 192.1 76.9 193 80.9 197.1V268.6L116.4 304.1H128.2C139.4 304.1 140.1 304.2 142.4 306.6C144 308.2 144.9 310.2 144.9 312.1C144.9 313.9 144 316.1 142.5 317.6C140.1 320.1 139.7 320.1 109.4 320.1L65 275.6V197L67.4 194.6C69 193 71 192.1 72.9 192.1ZM53.8 96.1H139.9L142.4 98.6C144 100.2 144.9 102.2 144.9 104.1C144.9 105.9 144 108.1 140 112.1H53.9L51.4 109.6C49.8 108 49 106 49 104.1C49 102.2 50 100 51.4 98.6L53.8 96.1ZM186.9 96.1C203.7 96.1 204 96.1 206.4 98.6C208 100.1 208.9 102.2 208.9 104.1C208.9 105.9 208 108 206.5 109.6C204 112 203.8 112.1 187 112.1C170.1 112.1 169.9 112 167.4 109.6C165.8 108 164.9 106 165 104C165 102.2 166 100 167.4 98.5C169.8 96.1 170.1 96.1 186.9 96.1ZM213.8 336.1H299.9L302.4 338.6C304 340.1 304.9 342.2 304.9 344.1C304.9 345.9 304 348 300 352.1H213.9L211.4 349.6C209.8 348 208.9 346 209 344C209 342.2 210 340 211.4 338.5L213.8 336.1ZM346.9 336.1C363.7 336.1 364 336.1 366.4 338.6C368 340.2 368.9 342.2 368.9 344.1C368.9 346 368 348.1 366.5 349.6C364 352.1 363.8 352.1 347 352.1C330.1 352.1 329.9 352.1 327.4 349.6C325.8 348 324.9 346 325 344.1C325 342.2 326 340 327.4 338.6C329.8 336.2 330.1 336.1 346.9 336.1Z" fill="black"/>
</g>
<defs>
<clipPath id="clip0_5923_1863">
<rect width="418" height="416" fill="white"/>
</clipPath>
</defs>
</svg>
