<svg width="509" height="512" viewBox="0 0 509 512" fill="none" xmlns="http://www.w3.org/2000/svg">
<path fill-rule="evenodd" clip-rule="evenodd" d="M192.986 0C197.169 0 204.249 0.536238 208.433 1.39422C212.723 2.2522 219.159 3.96816 222.699 5.25513C226.239 6.43486 231.817 9.0088 235.035 10.7248C238.253 12.548 243.08 15.8726 245.762 18.0176C248.444 20.1625 251.447 22.522 252.413 23.2727C254.022 24.3452 255.309 23.809 260.994 19.3046C264.749 16.5161 270.434 12.6552 273.652 10.832C276.87 9.0088 282.877 6.32761 287.061 4.93339C291.244 3.43192 298.431 1.71596 303.151 0.965228C308.193 0.107248 315.272 -0.214495 320.314 0.214495C325.034 0.536238 332.006 1.60871 335.868 2.57394C339.73 3.53917 347.131 6.43485 352.495 9.0088C357.751 11.5827 365.26 16.3016 369.014 19.4118C372.876 22.522 378.347 27.9916 381.135 31.5308C384.032 35.07 388.215 41.6121 390.468 46.0092C392.828 50.4064 395.831 57.9137 397.226 62.6326C399.157 69.6037 399.693 73.7863 399.693 85.1546C399.693 95.1286 399.157 101.134 397.762 106.068C396.69 109.929 394.33 116.471 392.399 120.546C390.468 124.622 387.25 130.52 385.319 133.416C383.281 136.312 353.889 166.663 319.885 200.767C261.745 259.003 257.884 262.649 254.344 262.649C250.804 262.649 246.942 259.003 188.802 200.767C154.798 166.663 125.406 136.419 123.368 133.416C121.437 130.413 118.219 124.622 116.289 120.546C114.358 116.471 111.998 109.929 110.925 106.068C109.531 101.134 108.994 95.1286 108.994 85.1546C108.994 73.7863 109.531 69.6037 111.461 62.6326C112.856 57.9137 115.859 50.4064 118.219 46.0092C120.472 41.6121 124.87 34.8555 127.981 31.1018C131.092 27.2409 136.562 21.7713 140.102 18.8756C143.642 16.0871 150.936 11.5827 156.193 9.0088C161.449 6.43485 168.743 3.53917 172.283 2.68119C175.823 1.82321 180.114 0.857981 181.937 0.643486C183.653 0.42899 188.695 0.107248 192.879 0H192.986ZM163.487 24.5597C157.694 27.3481 152.331 31.1018 147.611 35.6062C143.749 39.2526 138.708 45.1512 136.455 48.6904C134.31 52.2296 131.092 58.7717 129.483 63.1688C126.694 70.3544 126.372 72.6066 126.372 84.6183C126.265 95.8793 126.694 99.204 128.732 105.532C130.126 109.607 133.13 116.149 135.382 120.01C138.6 125.48 152.224 139.636 196.955 184.359L254.451 241.736L144.5 132.344L254.451 242.809L364.402 132.344L257.24 238.948C356.785 139.207 371.91 123.335 374.27 118.938C376.094 115.72 378.668 109.929 379.956 106.068C381.457 101.778 382.53 95.2359 382.852 88.9083C383.388 80.8647 382.959 76.8965 381.35 70.1399C380.17 65.421 377.488 58.2354 375.558 54.0528C372.983 48.6904 369.443 44.0788 363.329 37.8584C356.464 30.8873 352.924 28.2061 345.629 24.6669C340.588 22.2003 333.186 19.5191 329.003 18.6611C324.819 17.8031 318.598 17.0524 315.058 17.0524C311.518 17.0524 305.296 17.8031 301.113 18.6611C296.929 19.5191 289.742 22.093 285.023 24.4524C278.908 27.3481 273.759 31.1018 267.43 37.0004C259.493 44.4005 257.884 45.473 254.451 45.473C251.018 45.473 249.409 44.4005 241.471 37.0004C235.143 31.1018 229.994 27.3481 223.879 24.4524C219.159 22.093 211.865 19.5191 207.789 18.6611C203.713 17.8031 197.169 17.1596 193.308 17.1596C189.446 17.1596 183.224 17.9103 179.363 18.7683C175.501 19.5191 168.421 22.2003 163.487 24.5597ZM254.451 241.736L257.24 238.948C256.31 239.877 255.381 240.807 254.451 241.736ZM52.7854 100.276C56.0034 100.598 61.1523 101.885 64.0486 103.279C67.0521 104.674 71.0211 107.14 73.0592 108.856C75.0973 110.572 77.779 113.897 79.1735 116.256C80.568 118.616 90.544 146.178 121.116 234.229L161.234 257.823C183.439 270.8 204.035 283.348 207.253 285.708C210.471 288.067 215.62 293.108 218.838 296.969C221.948 300.829 226.454 307.801 228.706 312.519C231.066 317.238 233.748 324.209 234.713 328.07C236.215 333.969 236.537 342.442 236.859 381.48C237.288 424.808 237.395 427.811 239.219 427.811C240.184 427.811 242.008 428.776 243.188 430.063C245.226 432.208 245.333 433.816 245.333 507.174L240.506 512H114.036L109.102 507.174V469.744C109.102 433.816 109.209 432.208 111.247 430.063C112.427 428.776 114.25 427.811 115.323 427.811C116.932 427.811 117.147 426.524 117.147 414.726C117.147 402.822 116.932 400.999 114.572 396.173C112.32 391.775 106.42 385.984 81.1044 363.462C64.1559 348.447 48.4946 333.969 46.1347 331.288C43.8821 328.607 41.0931 324.102 40.0204 321.099C38.9477 318.204 29.508 283.884 18.9957 244.953C5.80159 195.834 0.00907219 172.347 0.00907219 168.271C-0.0981967 165.054 0.759955 159.692 1.83264 156.474C3.33441 152.077 5.37252 148.967 10.3069 144.141C16.2067 138.242 16.8503 137.277 16.9576 132.88C16.9576 130.199 17.8157 125.694 18.7811 122.691C19.7465 119.796 22.4283 115.184 24.6809 112.503C26.9336 109.822 30.688 106.497 33.0479 104.995C35.3005 103.601 39.3768 101.778 42.0585 101.027C44.8475 100.276 49.46 99.9548 52.7854 100.276ZM37.4459 123.442C36.4805 124.836 35.1933 127.517 34.5497 129.448C33.6915 132.236 33.7988 132.987 35.086 133.416C35.9442 133.738 37.7677 133.952 39.1622 133.952C40.4494 133.952 44.2039 135.239 47.4219 136.741C50.64 138.242 55.1453 141.245 57.3979 143.39C59.7579 145.535 62.6541 149.503 64.0486 152.184C65.3358 154.866 71.8792 173.956 78.5299 194.547C85.1806 215.246 90.6513 232.191 90.7586 232.406C90.8658 232.513 93.2258 232.084 96.0147 231.333C98.8037 230.582 101.056 229.724 101.056 229.403C101.056 229.081 93.1185 205.915 83.357 177.924C73.7028 149.932 64.7995 125.801 63.7268 124.3C62.5468 122.798 60.2942 120.868 58.5779 119.796C56.8616 118.83 53.7508 117.758 51.7127 117.436C49.1382 117.007 46.5638 117.436 43.6675 118.83C41.2003 120.01 38.5186 122.048 37.4459 123.442ZM20.1756 157.761C19.2102 159.048 17.923 162.158 17.2794 164.518C16.3139 168.486 17.8157 174.814 35.7296 241.2C46.4565 280.989 56.1107 315.308 57.1834 317.346C58.3634 319.491 72.5229 332.897 89.5786 348.018C106.205 362.926 121.759 377.083 124.119 379.656C126.372 382.23 129.483 387.057 130.984 390.274C133.559 395.636 133.773 397.674 134.095 411.509L134.31 426.738H220.125C219.481 341.584 219.159 335.363 217.55 330.215C216.478 326.998 214.118 321.421 212.402 317.882C210.363 313.914 206.18 308.551 201.46 303.94C194.809 297.398 188.802 293.537 153.082 272.731C130.663 259.646 110.603 248.6 108.565 248.171C105.883 247.635 103.416 247.956 99.9837 249.458C97.302 250.638 94.0839 252.89 92.9039 254.713C91.6167 256.429 90.2222 259.539 89.7931 261.577C89.3641 263.615 89.5786 267.047 90.2222 269.084C90.7586 271.122 92.4749 274.018 93.8694 275.519C95.2639 277.021 108.136 284.957 122.51 293.215C142.891 305.012 148.791 308.98 150.078 311.447C150.936 313.27 151.365 315.737 151.044 317.131C150.722 318.418 149.435 320.456 148.255 321.636C146.967 322.922 144.715 323.78 142.677 323.78C140.102 323.78 131.843 319.598 112.427 308.551C97.302 299.757 83.8934 291.392 81.4262 288.925C78.959 286.566 75.9555 282.276 74.561 279.273C73.2737 276.377 71.8792 271.229 71.4502 268.012C71.0211 263.829 71.3429 260.29 72.6301 255.678C73.5955 252.139 74.8828 248.814 75.4191 248.171C75.9555 247.527 70.6993 229.724 62.4396 204.199C54.8235 180.605 47.7437 160.121 46.5638 158.619C45.4911 157.118 42.4876 154.866 39.9131 153.579C37.2314 152.184 34.1206 151.112 32.9406 151.112C31.7607 151.112 28.7571 152.077 26.3972 153.15C23.93 154.329 21.141 156.367 20.1756 157.761ZM125.728 495.377H228.706V443.898H125.728V495.377ZM461.48 100.276C464.698 100.491 469.847 101.885 472.743 103.279C475.854 104.781 480.359 108.32 483.255 111.645C486.474 115.184 489.048 119.367 490.121 122.691C491.086 125.694 491.837 130.199 491.944 132.88C492.159 137.277 492.695 138.242 498.595 144.141C503.529 148.967 505.567 152.077 507.069 156.474C508.142 159.692 509 165.054 509 168.271C508.893 172.347 502.993 196.263 489.906 244.953C479.501 283.884 470.061 318.204 468.989 321.099C467.809 324.102 465.127 328.607 462.767 331.288C460.514 333.969 444.746 348.447 427.797 363.462C402.482 385.984 396.582 391.775 394.437 396.173C391.97 400.999 391.755 402.822 391.755 414.726C391.755 426.524 391.97 427.811 393.686 427.811C394.651 427.811 396.475 428.776 397.655 430.063C399.693 432.208 399.8 433.816 399.8 507.174L394.973 512H268.503L263.569 507.174V469.744C263.569 433.816 263.676 432.208 265.714 430.063C266.894 428.776 268.718 427.811 269.79 427.811C271.507 427.811 271.614 424.808 272.043 381.48C272.365 342.442 272.687 333.969 274.188 328.07C275.154 324.209 277.836 317.238 280.195 312.519C282.448 307.801 287.061 300.722 290.279 296.754C293.604 292.679 299.182 287.424 302.829 284.957C306.369 282.383 326.965 269.942 387.893 234.229L407.845 176.851C418.787 145.32 428.763 117.758 430.05 115.72C431.23 113.682 433.912 110.572 435.843 108.856C437.881 107.248 441.313 104.888 443.566 103.816C445.711 102.743 449.359 101.349 451.611 100.813C453.757 100.169 458.262 99.9548 461.48 100.276ZM445.175 124.3C444.102 125.801 435.306 149.932 425.545 177.924C415.783 205.915 407.845 229.081 407.845 229.403C407.845 229.724 410.098 230.582 412.994 231.333C415.783 232.084 418.143 232.513 418.143 232.406C418.251 232.191 423.721 215.246 430.372 194.547C437.023 173.956 443.566 154.866 444.853 152.184C446.248 149.503 449.573 145.32 452.255 142.854C454.936 140.28 458.905 137.491 460.944 136.633C462.982 135.775 467.165 134.596 470.061 133.952C475.318 132.88 475.425 132.773 474.567 129.984C474.03 128.268 472.743 125.587 471.456 123.764C470.276 122.048 467.272 119.688 464.913 118.723C462.445 117.651 459.549 116.793 458.584 116.793C457.511 116.793 454.507 117.865 451.933 119.259C449.251 120.546 446.248 122.798 445.175 124.3ZM462.338 158.619C461.265 160.121 454.078 180.605 446.462 204.199C438.203 229.724 432.946 247.527 433.483 248.171C434.019 248.814 435.306 252.139 436.272 255.678C437.666 260.29 437.988 263.829 437.452 268.012C437.023 271.229 435.628 276.377 434.341 279.273C432.946 282.276 429.943 286.566 427.476 288.925C425.008 291.392 411.6 299.757 396.475 308.551C377.167 319.598 368.8 323.78 366.332 323.78C364.187 323.78 361.934 322.922 360.647 321.636C359.467 320.456 358.18 318.418 357.858 317.131C357.536 315.737 357.965 313.27 358.824 311.447C360.111 308.98 366.011 305.012 386.392 293.215C400.766 284.957 413.638 277.021 415.032 275.519C416.427 274.018 418.143 271.122 418.787 269.084C419.43 267.047 419.538 263.615 419.109 261.577C418.68 259.539 417.285 256.429 416.105 254.713C414.818 252.89 411.6 250.638 408.918 249.458C405.486 247.956 403.018 247.635 400.337 248.171C398.299 248.6 378.239 259.646 355.82 272.731C320.099 293.537 314.092 297.398 307.442 303.94C302.722 308.551 298.538 313.914 296.608 317.882C294.784 321.421 292.424 326.998 291.459 330.215C289.742 335.363 289.421 341.584 289.099 381.48L288.777 426.738H374.592C375.128 397.352 375.343 395.744 378.132 390.06C379.741 386.628 383.281 381.372 386.177 378.369C388.966 375.367 404.413 361.21 420.396 347.053C436.915 332.36 450.538 319.491 451.718 317.346C452.791 315.308 462.445 280.881 473.172 240.985C486.688 190.15 492.373 167.413 491.944 165.376C491.515 163.66 490.228 160.764 488.941 158.726C487.654 156.581 484.865 154.222 482.397 153.042C480.037 152.077 477.141 151.112 475.961 151.112C474.781 151.112 471.67 152.184 469.096 153.579C466.414 154.866 463.411 157.118 462.338 158.619ZM280.195 495.377H383.174V443.898H280.195V495.377Z" fill="black"/>
<path d="M260.244 261.041L318.169 202.912V202.805C350.028 170.845 376.201 144.677 376.309 144.677C376.523 144.677 376.63 144.784 376.63 144.891C376.63 145.106 350.457 171.274 260.244 261.041Z" fill="black" fill-opacity="0.8"/>
<path d="M248.98 261.577C248.658 261.577 222.163 235.301 189.982 203.127C157.801 170.953 131.842 144.677 132.379 144.677C132.808 144.677 159.303 170.953 191.377 203.127C223.343 235.301 249.302 261.577 248.98 261.577Z" fill="black" fill-opacity="0.7"/>
<path d="M254.558 243.345C254.344 243.667 229.243 218.785 198.778 188.112L143.32 132.344L199.1 187.576C229.779 217.927 254.773 243.023 254.558 243.345Z" fill="black" fill-opacity="0.8"/>
<path d="M254.88 242.809L302.615 194.869V194.762C328.895 168.379 350.456 146.822 350.564 146.822C350.778 146.822 350.886 146.929 350.886 147.036C350.886 147.251 329.325 168.808 254.88 242.809Z" fill="black" fill-opacity="0.7"/>
<path fill-rule="evenodd" clip-rule="evenodd" d="M256.167 58.1282C273.867 58.3427 274.725 58.4499 277.085 60.8094C279.337 63.0616 279.552 64.2413 280.088 92.1257L294.57 92.4474C307.978 92.6619 309.158 92.8764 311.411 95.1286C313.771 97.4881 313.878 98.1316 313.878 117.865C313.878 137.599 313.771 138.242 311.411 140.602C309.158 142.854 307.978 143.068 280.088 143.605L279.874 158.083C279.552 171.489 279.337 172.669 277.085 174.921C274.725 177.28 274.081 177.388 254.344 177.388C234.606 177.388 233.963 177.28 231.603 174.921C229.35 172.669 229.136 171.489 228.599 143.605L214.118 143.39C200.709 143.068 199.529 142.854 197.277 140.602C194.917 138.242 194.81 137.599 194.81 117.865C194.81 98.1316 194.917 97.4881 197.277 95.1286C199.529 92.8764 200.709 92.6619 228.599 92.1257L228.921 77.7545C229.136 65.7428 229.457 63.0616 231.066 61.2384C232.139 59.9514 234.07 58.7717 235.357 58.5572C236.644 58.2355 246.084 58.1282 256.167 58.1282V58.1282ZM245.762 89.7662C245.87 103.708 245.655 104.566 243.402 106.819C241.042 109.071 239.97 109.285 226.239 109.285H211.436V126.445C240.184 126.338 241.042 126.552 243.295 128.804C245.548 131.164 245.762 132.236 245.762 146.071V160.764H262.925C262.818 132.022 263.033 131.164 265.285 128.912C267.645 126.659 268.718 126.445 282.556 126.445H297.251V109.285C268.503 109.393 267.645 109.178 265.393 106.926C263.14 104.566 262.925 103.494 262.925 89.7662V74.9661H245.762V89.7662Z" fill="black"/>
</svg>
