<svg width="427" height="268" viewBox="0 0 427 268" fill="none" xmlns="http://www.w3.org/2000/svg">
<g clip-path="url(#clip0_5617_2407)">
<path d="M3.4998 3.09999L0.799805 6.19999L0.999805 94C6.3998 99.4 7.5998 99.9 10.2998 99.5C11.9998 99.2 14.2998 98 15.2998 96.7C16.8998 94.7 17.0998 91.5 16.9998 55.8V17C76.6998 17 92.7998 16.6 94.7998 16C96.7998 15.4 98.5998 13.9 99.4998 12C100.3 10.3 100.7 7.99999 100.4 6.69999C99.9998 5.49999 98.7998 3.49999 97.5998 2.19999L95.4998 -0.100006L6.1998 -6.10203e-06L3.4998 3.09999ZM330.3 2.29999C329.2 3.49999 328 5.49999 327.6 6.79999C327.3 7.99999 327.7 10.4 328.5 12C329.4 13.9 331.2 15.4 333.2 16C335.2 16.7 351.3 17 373.7 17H411C410.9 91.6 411 94.7 412.7 96.8C413.7 98 416 99.2 417.7 99.5C420.4 99.9 421.6 99.5 424 97L427 94V5.99999L422 -6.10203e-06H332.3L330.3 2.29999ZM4.1998 170.9L1.1998 173.9L1.0998 262.1L6.0998 268.1H95.5998C98.8998 264.6 100.1 262.6 100.4 261.3C100.8 260.1 100.4 257.7 99.5998 256.1C98.5998 254.2 96.7998 252.7 94.7998 252.1C92.7998 251.4 76.7998 251 54.2998 251.1H17.0998C17.0998 176.5 16.9998 173.4 15.2998 171.3C14.3998 170.1 12.0998 168.8 10.3998 168.5C7.7998 167.9 6.6998 168.3 4.1998 170.9ZM415.5 169.1C414.4 169.6 412.9 170.9 412.3 172C411.4 173.5 411.1 184.3 411.1 212.6V251.1C351.3 251 335.3 251.4 333.3 252.1C331.3 252.7 329.5 254.2 328.6 256.1C327.7 257.7 327.3 260.1 327.7 261.3C328 262.6 329.2 264.6 330.4 265.8L332.6 268.1H422.1L427.1 262.1V174.1C422.4 169.4 420.3 168.1 419.3 168.1C418.3 168.2 416.6 168.6 415.5 169.1ZM50.5998 48.2C49.4998 48.8 47.9998 50.1 47.2998 50.9C46.2998 52.2 45.9998 69.7 45.9998 133.8C45.9998 178.5 46.3998 215.8 46.7998 216.7C47.1998 217.6 48.7998 219 50.2998 219.7C51.7998 220.5 53.7998 221.1 54.5998 221.1C55.4998 221.1 57.4998 219.7 59.0998 218.1L62.0998 215.1V53.1C57.3998 48.4 55.2998 47.1 54.2998 47.1C53.2998 47.1 51.6998 47.6 50.5998 48.2ZM86.3998 48C85.1998 48.5 83.4998 50 82.5998 51.3C81.1998 53.3 80.9998 61.7 80.9998 134.3L81.0998 215.1C85.2998 219.9 86.7998 220.6 89.4998 220.5C91.7998 220.5 93.8998 219.7 95.2998 218.2L97.5998 216C97.5998 53.5 97.4998 52.1 95.5998 50.2C94.4998 49.1 92.3998 48 91.0998 47.7C89.6998 47.4 87.5998 47.6 86.3998 48ZM121.6 48.3C120.5 48.9 119 50.1 118.3 51C117.4 52.2 117.1 71.5 117.1 134.1C117.1 196.6 117.4 215.9 118.3 217.2C119 218 120.7 219.3 122.1 220C123.4 220.7 125.6 221 126.8 220.7C128 220.3 130 219.1 131.1 217.8C133.1 215.6 133.1 214.5 133 134.1C133 71.6 132.7 52.2 131.8 51C131.1 50.1 129.5 48.9 128.3 48.2C127.1 47.6 125.5 47.1 124.8 47.1C124.1 47.1 122.7 47.7 121.6 48.3ZM157.4 48C156.2 48.5 154.6 49.6 153.9 50.6C152.8 52.1 152.6 67.5 152.6 134.2V216C156.3 219.8 158.3 220.6 160.7 220.6C163.3 220.6 164.9 219.9 166.6 217.8L169.1 215.1V53.1C165.6 49.3 163.4 47.9 162.1 47.7C160.7 47.4 158.6 47.5 157.4 48ZM191.1 50L188.2 52.9L188.1 215.1C192.7 219.7 194.7 221.1 195.6 221.1C196.4 221.1 198.3 220.5 199.8 219.7C201.3 219 202.9 217.6 203.3 216.7C203.7 215.8 204.1 178.6 204.1 134.1C204.1 89.5 203.7 52.3 203.3 51.4C202.9 50.5 201.3 49.2 199.8 48.4C198.3 47.7 196.3 47.1 195.5 47.1C194.6 47.1 192.6 48.4 191.1 50ZM228.6 48.2C227.5 48.8 226 50.1 225.3 50.9C224.3 52.2 224 69.7 224 133.8C224 178.5 224.4 215.8 224.8 216.7C225.2 217.6 226.8 219 228.3 219.7C229.8 220.5 231.8 221.1 232.6 221.1C233.5 221.1 235.5 219.7 237.1 218.1L240.1 215.1V53.1C235.4 48.4 233.3 47.1 232.3 47.1C231.3 47.1 229.7 47.6 228.6 48.2ZM264.4 48C263.2 48.5 261.5 50 260.6 51.3C259.2 53.3 259 61.7 259 134.3L259.1 215.1C263.3 219.9 264.8 220.6 267.5 220.5C269.8 220.5 271.9 219.7 273.3 218.2L275.6 216C275.6 53.5 275.5 52.1 273.6 50.2C272.5 49.1 270.4 48 269.1 47.7C267.7 47.4 265.6 47.6 264.4 48ZM299.6 48.3C298.5 48.9 297 50.1 296.3 51C295.4 52.2 295.1 71.5 295.1 134.1C295.1 196.6 295.4 215.9 296.3 217.2C297 218 298.7 219.3 300.1 220C301.4 220.7 303.6 221 304.8 220.7C306 220.3 308 219.1 309.1 217.8C311.1 215.6 311.1 214.5 311 134.1C311 71.6 310.7 52.2 309.8 51C309.1 50.1 307.5 48.9 306.3 48.2C305.1 47.6 303.5 47.1 302.8 47.1C302.1 47.1 300.7 47.7 299.6 48.3ZM335.4 48.3C334.1 49 332.5 50.7 331.6 52.1C330.2 54.3 330.1 63.9 330.3 135.3L330.6 216C334.3 219.8 336.3 220.6 338.7 220.6C341.3 220.6 342.9 219.9 344.6 217.8L347.1 215.1V53.1C343.6 49.3 341.4 47.9 340.1 47.6C338.7 47.3 336.6 47.6 335.4 48.3ZM369.1 50L366.2 52.9L366.1 215.1C370.7 219.7 372.7 221.1 373.6 221.1C374.4 221.1 376.3 220.5 377.8 219.7C379.3 219 380.9 217.6 381.3 216.7C381.7 215.8 382.1 178.6 382.1 134.1C382.1 89.5 381.7 52.3 381.3 51.4C380.9 50.5 379.3 49.2 377.8 48.4C376.3 47.7 374.3 47.1 373.5 47.1C372.6 47.1 370.6 48.4 369.1 50Z" fill="black"/>
</g>
<defs>
<clipPath id="clip0_5617_2407">
<rect width="427" height="268" fill="white"/>
</clipPath>
</defs>
</svg>
