<svg width="397" height="512" viewBox="0 0 397 512" fill="none" xmlns="http://www.w3.org/2000/svg">
<path fill-rule="evenodd" clip-rule="evenodd" d="M186.5 0.1L211 0L236 19.5L384.6 20.5L388.6 23.1C390.9 24.6 393.4 27.5 397 34.5L396.5 499.5L394.4 503C393.3 504.9 390.6 507.7 384.5 511.9H13.5L9.5 509.2C7.2 507.6 4.5 504.5 1 497.5V267C1 99.7 1.3 35.4 2.1 32.5C2.8 30.3 4.7 27.1 6.4 25.4C8.1 23.7 11.3 21.8 13.5 21.1C16.3 20.4 39.4 20 161.5 20L174 10.1L186.5 0.1ZM177 21L164.5 30.9H108V43.9H290V30.9H233.5L208 10.9L189.5 11.1L177 21ZM12 266.1C11.9 486.7 12 497.5 13.7 499.1C15.4 500.7 26.7 500.8 199 500.9C373.8 501 382.6 500.9 384.2 499.2C385.8 497.5 386 483.7 386 266.1C386 36.2 386 34.9 384 32.9C382.1 31 380.7 30.9 341.5 30.9H301C300.5 50.7 300.3 52.2 298.5 53.5C296.8 54.7 282.1 54.9 199 54.9C115.9 54.9 101.2 54.7 99.5 53.5C97.7 52.2 97.5 50.7 97.3 41.5L97 30.9C17.3 30.9 15.9 31 14 32.9C12 34.9 12 36.2 12 266.1ZM108 79.4C112 79.7 116.6 80.9 120 82.5C123 83.8 127.6 87.1 130.2 89.7C132.9 92.3 136.2 97 137.7 100.4C139.9 105.3 140.4 107.8 140.4 114.4C140.4 121 140 123.4 137.7 128.1C136.2 131.3 133 136 126.2 143.4L135.8 144.1C141.2 144.5 147.8 145.6 150.5 146.6C153.5 147.6 157.7 150.3 161 153.4C164.3 156.5 167.5 160.7 171.5 169.4V294.5L168.8 298.2C167.2 300.2 164.5 302.7 162.8 303.6C160.8 304.6 157.1 305.3 148 305.4V378.4C147.9 439.9 147.7 452 146.4 455.4C145.6 457.6 144.2 460.2 143.2 461.3C142.3 462.3 139.3 464.2 136.5 465.5C132.7 467.3 129.8 467.9 124.3 467.9C119.9 467.9 115.5 467.3 113.3 466.3C111.2 465.5 108.8 464.1 108 463.3C106.7 462 106 462.1 102.5 464.4C100.3 465.8 97.1 467.2 95.5 467.5C93.8 467.8 89.1 467.9 84.9 467.7C78.6 467.4 76.6 466.9 72.5 464.4C69.9 462.7 66.9 459.8 65.9 457.9C64.1 454.6 64 450.6 64 303.9L60.3 305C57.6 305.7 55.3 305.7 52.3 305C49.9 304.4 46.6 302.7 44.9 301.1C43.2 299.6 41.2 296.6 40.4 294.4C39.1 291 39 281.1 39.5 169.4L42.2 163.9C43.7 160.7 47.1 156.3 50.2 153.4C53.3 150.6 57.8 147.6 60.6 146.6C63.4 145.6 69.8 144.5 85.5 143.6L81.6 140C79.5 138 76.7 134.6 75.4 132.4C74.1 130.2 72.3 125.5 71.4 121.9C70 116.3 69.9 114.4 71 108.9C71.6 105.3 73 100.7 74.1 98.6C75.1 96.6 77.9 92.8 80.3 90.3C82.6 87.7 86.6 84.6 89.3 83.3C91.9 82 95.7 80.5 97.8 79.9C99.8 79.4 104.4 79.2 108 79.4ZM88.5 97.3C85.4 100.4 83 104 82.2 106.4C81.6 108.6 81 112.4 81 114.9C81 117.5 82 121.5 83.3 124.4C84.6 127.1 87.5 131 89.7 132.9C91.9 134.8 95.5 136.9 97.6 137.6C99.7 138.3 103.3 138.9 105.5 138.9C107.7 138.9 111.3 138.3 113.5 137.7C115.9 136.9 119.5 134.5 122.6 131.4C125.9 128.2 128.1 125 128.9 122.4C129.5 120.2 130 116.6 130 114.4C130 112.2 129.5 108.6 128.9 106.4C128.2 103.8 126 100.6 122.6 97.3C119.3 93.9 116.1 91.7 113.5 91C111.3 90.4 107.5 89.9 105 90C102.5 90.1 98.9 90.6 97 91.2C95.1 91.8 91.2 94.6 88.5 97.3ZM57.1 161.1C55.3 162.9 52.9 166.2 51.9 168.4C50.2 172.1 50 176.1 50 232.1V291.9C53.5 294.2 55.4 294.9 56.5 294.9C57.6 295 59.6 294.1 61 293L63.5 291.1L64.5 185.4C69.4 183.6 70.3 183.7 72 185.4L74.1 187.4L74 451.9C78.3 455.8 81.3 457.2 83.5 457.5C85.7 457.9 89.1 457.9 91 457.5C92.9 457.2 95.7 456 97.3 454.9L100 452.9C100 309.4 100.2 292 101.2 290.7C101.9 289.8 103.5 288.8 104.8 288.5C106.3 288.1 107.7 288.5 109 289.9C111 291.9 111 293.2 111 371.9C111 450.6 111 451.9 113 453.9C114.1 455 116.7 456.4 118.8 457C121 457.7 124.4 457.8 127.5 457.4C130.8 456.9 133.3 455.8 134.8 454.3L137 451.9C136.9 194.1 137 187.3 138.7 185.7C139.7 184.7 141.3 183.9 142.3 183.9C143.2 183.9 144.9 184.8 146 185.9C147.9 187.8 148 189.2 148 239.9V291.9C151.5 294.2 153.6 294.9 155 294.9C156.4 294.9 158.4 294 159.5 292.8C161.5 290.7 161.5 289.3 161.5 231.5V172.4C156.8 164.1 153.9 160.7 152 159.3C150.1 158 146.9 156.5 145 155.9C142.9 155.3 126.9 154.9 105 154.9C75.7 155 67.7 155.3 64.5 156.4C62.3 157.2 59 159.3 57.1 161.1ZM309.1 78.9C321.7 78.9 323.2 79.1 325 80.9C326.8 82.7 327 84.2 327 110.9H340.8C351.4 110.9 355 111.2 356.8 112.4C358.9 113.8 359 114.4 359 128.9C359 143.3 358.9 143.9 356.8 145.4C355 146.6 351.4 146.9 327 146.9V160.9C327 173.6 326.8 175.1 325 176.9C323.2 178.7 321.7 178.9 309.8 178.9C299.6 178.9 296 178.6 294.3 177.4C292.1 176 292 175.3 292 146.9H278.3C267.6 146.9 264 146.6 262.3 145.4C260.1 143.9 260 143.3 260 129.1C260 116.6 260.3 114.1 261.8 112.6C263.3 111.1 265.4 110.8 292 110.9L291.8 96.7C291.7 84.2 291.9 82.3 293.5 80.7C295.1 79.1 297.1 78.9 309.1 78.9ZM302 104.1C302.1 116.5 301.8 118.6 300.3 120.1C298.8 121.6 296.4 121.8 284.3 121.9H270V135.9C296.1 135.9 299.3 136.2 300.5 137.4C301.7 138.6 302 141.8 302 153.4V167.9H316C316 141.2 316.2 139.7 318 137.9C319.8 136.1 321.3 135.9 334 135.9H348V121.9C321.3 121.9 319.8 121.7 318 119.9C316.2 118.1 316 116.6 316 103.9V89.9H302V104.1ZM220.9 198.8C243.2 198.8 244.6 198.9 246.7 200.8C248.9 202.8 249 203.2 249 226.6C249 246.1 248.7 250.7 247.5 252.6C246 254.8 245.8 254.8 221.5 254.8C198.3 254.8 196.9 254.7 195 252.8C193.1 251 193 249.4 192.6 203.5L194.9 201.2C197.3 198.9 197.6 198.8 220.9 198.8ZM202.8 227.5L203 244.8H239L238.5 209.3C212 208.9 204 209.1 203.5 209.5C203 209.9 202.7 218 202.8 227.5ZM310.4 208.9C351.7 208.9 355.6 209 357.3 210.6C358.2 211.6 359 213.4 359 214.6C359 215.8 358 217.5 356.7 218.3C354.8 219.6 348 219.9 310.5 219.9C272.9 219.9 266.1 219.6 264.2 218.3C263 217.5 261.9 215.9 261.8 214.7C261.7 213.5 262.4 211.7 263.4 210.7C265.2 209 268 208.8 310.4 208.9ZM292.5 232.8C314 232.8 318.9 233.1 320.7 234.3C322 235.2 323 236.9 323 238.3C323 239.8 322 241.5 320.7 242.3C318.9 243.6 314 243.9 292.5 243.9C271 243.9 266.1 243.6 264.2 242.3C263 241.5 261.9 239.7 261.8 238.4C261.7 236.8 262.6 235.4 264.1 234.4C266.1 233.1 270.6 232.8 292.5 232.8ZM220.9 269.8C243.2 269.8 244.6 269.9 246.7 271.8C248.9 273.8 249 274.2 249 297.6C249 317.1 248.7 321.7 247.5 323.6C246 325.8 245.8 325.8 221.5 325.8C198.3 325.8 196.9 325.7 195 323.8C193.1 322 193 320.4 192.6 274.5L194.9 272.2C197.3 269.9 197.6 269.8 220.9 269.8ZM202.8 298.5L203 315.8H239L238.5 280.3C212 279.9 204 280.1 203.5 280.5C203 280.9 202.7 289 202.8 298.5ZM310.4 279.9C351.7 279.9 355.6 280 357.3 281.6C358.2 282.6 359 284.4 359 285.6C359 286.8 358 288.5 356.7 289.3C354.8 290.6 348 290.9 310.5 290.9C272.9 290.9 266.1 290.6 264.2 289.3C263 288.5 261.9 286.9 261.8 285.7C261.7 284.5 262.4 282.7 263.4 281.7C265.2 280 268 279.8 310.4 279.9ZM292.5 303.8C314 303.8 318.9 304.1 320.7 305.3C322 306.2 323 307.9 323 309.3C323 310.8 322 312.5 320.7 313.3C318.9 314.6 314 314.9 292.5 314.9C271 314.9 266.1 314.6 264.2 313.3C263 312.5 261.9 310.7 261.8 309.4C261.7 307.8 262.6 306.4 264.1 305.4C266.1 304.1 270.6 303.8 292.5 303.8ZM220.9 340.8C243.2 340.8 244.6 340.9 246.7 342.8C248.9 344.8 249 345.3 249 368.6C249 390.7 248.9 392.5 245.1 397.3L224.3 397.7C212.8 397.8 202 397.7 200.2 397.4C198.4 397.1 196.1 395.9 195 394.8C193.1 393 193 391.4 192.6 345.5L194.9 343.2C197.3 340.9 197.6 340.8 220.9 340.8ZM202.8 369.5L203 386.8H239L238.5 351.3C212 350.9 204 351.1 203.5 351.5C203 351.9 202.7 360 202.8 369.5ZM310.4 350.9C351.7 350.9 355.6 351 357.3 352.6C358.2 353.6 359 355.4 359 356.6C359 357.8 358 359.5 356.7 360.3C354.8 361.6 348 361.9 310.5 361.9C272.9 361.9 266.1 361.6 264.2 360.3C263 359.5 261.9 357.9 261.8 356.7C261.7 355.5 262.4 353.7 263.4 352.7C265.2 351 268 350.8 310.4 350.9ZM292.5 374.8C314 374.8 318.9 375.1 320.7 376.3C322 377.2 323 378.9 322.9 380.1C322.9 381.3 322.1 383.1 321.2 384.1C319.6 385.8 317.1 385.9 292.5 385.8C268.3 385.8 265.3 385.6 263.7 384.1C262.7 383.1 261.9 381.4 261.8 380.1C261.7 378.9 262.7 377.3 264.1 376.4C266.1 375.1 270.6 374.8 292.5 374.8ZM220.9 411.8C243.2 411.8 244.6 411.9 246.7 413.8C248.9 415.8 249 416.2 249 440.1C249 463.6 249 464.4 246.9 466.3C244.9 468.2 243.1 468.4 224.1 468.7C212.8 468.8 202 468.7 200.2 468.4C198.4 468.1 196.1 466.9 195 465.8C193.1 464 193 462.4 192.6 416.5L194.9 414.2C197.3 411.9 197.6 411.8 220.9 411.8ZM202.8 440.5L203 457.8H239L238.5 422.3C212 421.9 204 422.1 203.5 422.5C203 422.9 202.7 431 202.8 440.5ZM310.4 421.9C351.7 421.9 355.6 422 357.3 423.6C358.2 424.6 359 426.4 359 427.6C359 428.8 358 430.5 356.7 431.3C354.8 432.6 348 432.9 310.5 432.9C272.9 432.9 266.1 432.6 264.2 431.3C263 430.5 261.9 428.9 261.8 427.7C261.7 426.5 262.4 424.7 263.4 423.7C265.2 422 268 421.8 310.4 421.9ZM292.5 445.8C314 445.8 318.9 446.1 320.7 447.3C322 448.2 323 449.9 322.9 451.1C322.9 452.3 322.1 454.1 321.2 455.1C319.6 456.8 317.1 456.9 292.5 456.8C268.3 456.8 265.3 456.6 263.7 455.1C262.7 454.1 261.9 452.4 261.8 451.1C261.7 449.9 262.7 448.3 264.1 447.4C266.1 446.1 270.6 445.8 292.5 445.8ZM232.2 214.4C233.5 214.7 235 215.8 235.7 216.7C236.4 217.6 237 219 236.9 219.8C236.9 220.7 232.7 225.5 227.7 230.6C222.1 236.3 217.7 239.9 216.5 239.9C215.4 239.8 212.5 237.9 210.2 235.6C207.2 232.6 205.9 230.5 206 228.6C206 226.6 206.7 225.5 208.6 224.6C210.7 223.6 211.6 223.6 213.8 224.9C216.4 226.5 216.5 226.5 223.2 220.1C228.7 214.9 230.4 213.8 232.2 214.4ZM232.2 285.4C233.5 285.7 235 286.8 235.7 287.7C236.4 288.6 237 290 236.9 290.8C236.9 291.7 232.7 296.5 227.7 301.6C222.1 307.3 217.7 310.9 216.5 310.9C215.4 310.8 212.5 308.9 210.2 306.6C207.2 303.6 205.9 301.5 206 299.6C206 297.6 206.7 296.5 208.6 295.6C210.7 294.6 211.6 294.6 213.8 295.9C216.4 297.5 216.5 297.5 223.2 291.1C228.7 285.9 230.4 284.8 232.2 285.4ZM232.2 356.4C233.5 356.7 235 357.8 235.7 358.7C236.4 359.6 237 361 236.9 361.8C236.9 362.7 232.7 367.5 227.7 372.6C222.1 378.3 217.7 381.9 216.5 381.9C215.4 381.8 212.5 379.9 210.2 377.6C207.2 374.6 205.9 372.5 206 370.6C206 368.6 206.7 367.5 208.6 366.6C210.7 365.6 211.6 365.6 213.8 366.9C216.4 368.5 216.5 368.5 223.2 362.1C228.7 356.9 230.4 355.8 232.2 356.4ZM232.8 427.6C233.7 427.9 235 428.8 235.7 429.7C236.4 430.6 237 432 236.9 432.8C236.9 433.7 232.7 438.5 227.7 443.6C222.1 449.3 217.7 452.9 216.5 452.9C215.4 452.8 212.5 450.9 210.2 448.6C207.5 445.9 205.9 443.3 205.7 441.6C205.6 439.4 206.1 438.5 208.3 437.6C210.7 436.5 211.6 436.6 213.8 438C216.5 439.6 216.5 439.6 221.9 434.1C224.9 431 228.2 428.2 229.3 427.8C230.3 427.4 232 427.3 232.8 427.6Z" fill="black"/>
</svg>
