<svg width="510" height="508" viewBox="0 0 510 508" fill="none" xmlns="http://www.w3.org/2000/svg">
<g clip-path="url(#clip0_5617_2426)">
<path fill-rule="evenodd" clip-rule="evenodd" d="M156 0.10002C265.1 2.01389e-05 279 0.20002 283 1.60002C285.5 2.50002 289.3 4.10002 291.5 5.30002C293.7 6.40002 297.6 9.50002 300.3 12.2C302.9 14.8 306.5 20 311.5 30.5L312 156H296V82H17V377H296V205H312L311.5 477.5L309 483C307.5 486 305.1 490.2 303.5 492.4C301.8 494.5 298.7 497.7 296.5 499.4C294.3 501.1 289.5 503.7 279 508H156.7C36.9 508 34.4 508 29.2 506C26.4 504.9 22.3 502.9 20.2 501.6C18.2 500.3 14.7 497.2 12.4 494.9C10.2 492.5 7.4 488.9 6.2 487C5.1 485.1 3.4 480.8 2.6 477.5C1.2 472.1 1 448.1 1 252.5C1 35.9 1 33.4 3 28.2C4.1 25.4 6.1 21.3 7.4 19.3C8.7 17.2 11.9 13.5 14.6 11C17.3 8.50002 21.5 5.50002 24 4.40002C26.5 3.20002 29.6 1.80002 31 1.20002C32.7 0.50002 70.5 0.10002 156 0.10002ZM30.2 19.4C28.7 20.1 25.9 22.5 23.9 24.6C22 26.8 19.7 30.3 18.9 32.5C18 35.3 17.5 41 17.5 51V65.5L296 66C296 41.5 295.6 36.3 294.5 33.3C293.7 30.9 291.9 27.5 290.6 25.8C289.3 24 285.8 21.1 282.8 19.5L277.5 16.5C90.5 16.2 38.9 16.6 36.7 17.1C34.7 17.6 31.8 18.6 30.3 19.4H30.2ZM17.2 434.1C17.4 470.7 17.5 472.7 19.5 477C20.6 479.5 23.3 483.1 25.5 485.1C27.6 487 31.2 489.3 33.4 490.1C36.8 491.3 55.6 491.5 157.4 491.5H277.4C285.7 486.8 289.2 484 290.5 482.3C291.8 480.5 293.6 477.1 294.4 474.8C295.7 471.2 295.9 463.9 295.9 431.8V393C40.3 393 17.8 393.2 17.4 394.4C17.2 395.1 17.1 413 17.2 434.1ZM377.9 8.00002H393.9V41H377.9V33H361.9L362.4 137.5L364.9 144C366.3 147.6 369 153.2 370.9 156.5C372.8 159.7 377.3 165.4 380.9 169C384.5 172.6 390.4 177.2 393.9 179.3C397.5 181.4 403.3 184 406.9 185.2C411.3 186.6 417 187.5 424.4 187.8C432.5 188.1 437.1 187.8 441.9 186.6C445.5 185.7 452.2 183.1 456.9 180.8C463.5 177.6 467.1 174.9 472.9 169.1C478.2 163.7 481.7 159.1 484.6 153.5C486.9 149.1 489.5 142.8 490.5 139.5C492 134.2 492.3 127.5 492.9 33H475.9V41H459.9V8.00002H475.9V16H508.9V74.3C508.9 130.1 508.8 132.9 506.8 141C505.7 145.7 503.2 152.9 501.2 157C499.3 161.1 495.8 167.2 493.4 170.5C491.1 173.8 486.5 179 483.3 182.1C480 185.1 475.2 189.1 472.4 191C469.7 192.9 464.7 195.6 461.4 197.2C458.1 198.7 451.3 200.9 446.4 202.1C441.4 203.3 436.8 204.5 436.2 204.7C435.2 204.9 434.9 219.6 434.9 273.8C434.9 333 434.7 343.3 433.3 348.5C432.5 351.8 430.6 356.8 429.1 359.5C427.6 362.3 423.7 367.2 420.4 370.6C416.5 374.5 412.1 377.7 407.9 379.7C404.3 381.4 399 383.3 396.2 383.9C393.3 384.5 388.7 385 385.9 385C383.2 385 378.5 384.5 375.7 383.9C372.8 383.3 367.7 381.4 364.4 379.8C361.1 378.2 356.4 375.2 353.9 373.1C351.4 371 347.6 366.7 345.5 363.4C343.3 360.2 340.6 355 339.5 352C337.5 346.8 337.4 343.8 336.9 290C336.3 239.2 336.1 232.9 334.5 228C333.5 225 331.2 219.6 329.4 216C327.5 212.4 324.1 207.2 321.7 204.3C319.3 201.5 315.2 197.3 312.4 195C309.7 192.7 303.8 189.2 299.4 187C295 184.9 288.9 182.6 285.9 181.9C282.9 181.2 276.1 180.6 270.9 180.6C265.1 180.7 258.9 181.3 254.9 182.4C251.3 183.4 244.8 186 240.4 188.3C235 191.2 230.2 194.7 225.4 199.5C221.6 203.4 216.9 209 215.2 212C213.4 215 210.7 220.9 209.2 225C206.7 232.2 206.5 233.6 205.7 279.5L210 281.2C212.4 282.1 216.6 284.8 219.2 287.2C222.2 289.8 225.2 293.9 227 297.5C229.4 302.5 229.9 304.7 229.9 310.8C229.9 315.8 229.2 319.7 227.7 323.8C226.3 327.3 223.8 331.2 220.9 334C218.4 336.5 214.2 339.7 211.4 341C207.4 342.9 204.8 343.4 198.4 343.5C192.8 343.5 188.9 342.9 185.4 341.6C182.5 340.5 178.2 337.5 175.1 334.6C172.1 331.7 168.9 327.3 167.6 324.5C165.9 320.7 165.4 317.5 165.4 311C165.4 303.2 165.7 302 168.9 296.1C170.8 292.6 174 288.4 175.9 286.8C177.8 285.2 181.5 282.9 188.7 279.5L189.2 257C189.7 239 190.2 232.9 191.8 226.5C193 222.1 195.9 214.4 198.3 209.5C200.8 204.5 204.9 197.8 207.6 194.6C210.2 191.3 215.5 185.9 219.4 182.7C223.3 179.4 230.4 174.9 235.4 172.5C240.3 170.1 247.3 167.3 250.9 166.3C255.8 165 261 164.6 271.9 164.6C285 164.6 287.2 164.9 294.9 167.4C299.6 168.9 306.3 171.8 309.9 173.7C313.5 175.6 319.3 179.5 322.8 182.4C326.4 185.2 332 190.9 335.2 195C338.5 199.1 342.8 206.1 344.9 210.5C347 214.9 349.5 221.2 350.5 224.5C352 229.8 352.3 237.4 353.4 343.5L355.9 349C357.3 352 360.5 356.5 362.9 358.9C365.4 361.3 369.9 364.4 372.9 365.8C377.2 367.8 380.1 368.4 385.9 368.4C392.4 368.5 394.3 368.1 399.9 365.3C403.5 363.6 407.9 360.5 409.8 358.3C411.7 356.2 414.4 352 418.4 343.5L419 204.5L411.7 203.2C407.7 202.5 400.8 200.5 396.4 198.7C392 196.9 385.7 193.7 382.4 191.5C379.1 189.4 373.2 184.4 369.3 180.5C365.5 176.7 360.4 170.6 358.1 167C355.8 163.4 352.5 157 350.9 152.8C349.2 148.5 347.2 141.1 346.4 136.3C345.1 129 344.9 117.8 345.4 16.5L377.9 16V8.00002ZM183.1 304.1C181.1 307.8 180.8 309.3 181.4 313.5C182 317.6 182.9 319.3 186.3 322.6C189.6 326 191.3 326.9 195.4 327.5C199.6 328.1 201.1 327.8 204.8 325.8C207.9 324.2 209.9 322.2 211.6 319C212.9 316.5 213.9 312.9 213.9 311C213.9 309.1 212.8 305.7 211.6 303.5C210.3 301.3 207.6 298.5 205.4 297.3C203.2 296 199.8 295 197.9 295C195.9 295 192.3 296.1 189.9 297.3C186.7 299 184.7 301 183.1 304.1ZM402.4 106.5V122.5L385.9 123L385.7 115.2C385.6 110.9 386 107 386.4 106.6C386.9 106.2 390.7 106.1 402.4 106.5ZM418.9 106H434.9V123H418.9V106ZM451.9 106H467.9V123H451.9V106ZM90.9 33H107.9V49H90.9V33ZM123.9 33H188.9V49H123.9V33ZM156.7 410.1C160.5 410 164.9 410.7 168.2 411.9C171 413 175.4 415.7 177.9 417.8C180.4 420 183.7 424.1 185.4 427.1C188.2 432.1 188.4 433.3 188.4 442.5C188.4 451.7 188.2 452.9 185.4 457.9C183.7 460.9 180.4 465 177.9 467.2C175.4 469.3 170.9 472 167.9 473.1C163.6 474.7 160.7 475.1 154.9 474.8C150 474.5 145.8 473.6 142.9 472.3C140.4 471.1 136.5 468.3 134.2 466.1C131.8 463.8 128.7 459.6 127.2 456.7C124.8 452.2 124.4 450.4 124.4 442.5C124.4 434.9 124.8 432.8 126.8 429C128.1 426.5 130.2 423.1 131.4 421.4C132.6 419.6 135.6 417 138 415.4C140.4 413.9 144.2 412.1 146.4 411.4C148.6 410.7 153.2 410.1 156.7 410.1ZM142.9 433.5C141.9 435.1 140.8 437.8 140.4 439.5C140.1 441.1 140.2 444.3 140.8 446.5C141.4 449.1 143.2 451.8 145.8 454.2C148.9 457.1 151 458.1 154.7 458.6C158.5 459.1 160.3 458.7 163.9 456.8C166.7 455.3 169.2 452.9 170.6 450.4C171.9 448.3 172.9 444.8 172.9 442.7C172.9 440.7 172.1 437.3 171.2 435.3C170.2 433.3 167.9 430.5 166 429.1C163.7 427.4 160.9 426.4 158 426.2C154.7 426 152.2 426.5 149 428.2C146.6 429.5 143.9 431.8 142.9 433.5Z" fill="black"/>
</g>
<defs>
<clipPath id="clip0_5617_2426">
<rect width="510" height="508" fill="white"/>
</clipPath>
</defs>
</svg>
