<svg width="480" height="480" viewBox="0 0 480 480" fill="none" xmlns="http://www.w3.org/2000/svg">
<g clip-path="url(#clip0_5617_2470)">
<path fill-rule="evenodd" clip-rule="evenodd" d="M239.3 0.0999638C246.8 -3.62359e-05 255.1 0.499964 257.7 1.09996C260.4 1.79996 265.9 3.09996 270 4.19996C274.1 5.29996 281.8 8.19996 287 10.6C292.2 13.1 299.6 17.3 303.5 19.8C307.3 22.4 314.3 28.3 319 33C323.7 37.7 329.6 44.7 332.1 48.5C334.7 52.4 338.4 58.8 340.4 62.8C342.4 66.7 345.1 73.5 346.6 77.8C348 82 349.8 89.8 350.5 95C351.3 100.2 352 107.9 352 112C352 116.1 351.5 122.6 351 126.5C350.4 130.3 349.1 137.1 348 141.5C346.9 145.9 343.3 154.9 340 161.5C336.1 169.3 331.5 176.6 326.7 182.5C322.7 187.6 315.5 194.7 310.5 198.8C304.6 203.5 297.3 208.1 289.5 212C282.9 215.3 273.9 218.9 269.5 220C265.1 221.1 258.3 222.4 254.5 223C250.6 223.5 244.1 224 240 224C235.9 224 229.3 223.5 225.5 223C221.6 222.4 214.9 221 210.5 219.9C206.1 218.8 198.2 215.8 193 213.4C187.8 210.9 180.4 206.7 176.5 204.2C172.7 201.6 165.7 195.7 161 191C156.3 186.3 150.4 179.3 147.9 175.5C145.3 171.6 141.6 165.2 139.6 161.2C137.6 157.3 134.9 150.5 133.4 146.3C132 142 130.2 134.2 129.5 129C128.7 123.8 128 116.1 128 112C128 107.9 128.7 100.2 129.5 95C130.3 89.8 132.2 81.7 133.8 77C135.4 72.3 138.3 65.3 140.2 61.5C142.2 57.6 144.9 53 146.4 51.3C148.4 48.7 149.8 48 152.5 48C154.7 48 156.8 48.8 158 50C159.1 51.1 160.1 52.8 160.1 53.8C160.2 54.7 160.1 56.4 160 57.5C159.9 58.6 158.6 61.3 157.2 63.5C155.8 65.7 153.3 70.6 151.7 74.5C150.1 78.3 147.9 84.9 146.8 89C145.8 93.1 144.7 101.4 144.3 107.5C143.9 115.4 144.2 121.1 145.4 127.8C146.3 132.8 148.3 140.7 150 145.2C151.6 149.8 155.3 157.3 158.2 162C161.1 166.7 166.8 174 171 178.4C175.1 182.7 182.1 188.6 186.5 191.5C190.9 194.5 197.9 198.3 202 200C206.1 201.8 212.9 204.1 217 205.2C221.1 206.2 229.4 207.4 235.5 207.7C243.4 208.1 249.1 207.8 255.7 206.6C260.8 205.7 268.7 203.7 273.2 202C277.8 200.4 285.3 196.7 290 193.8C295.4 190.6 301.9 185.3 307.6 179.6C313.3 173.9 318.6 167.4 321.8 162C324.7 157.3 328.4 149.8 330 145.3C331.7 140.7 333.7 133.1 334.5 128.3C335.3 123.4 336 116.1 336 112C336 107.9 335.3 100.6 334.5 95.8C333.7 90.9 331.7 83.3 330 78.8C328.4 74.2 324.7 66.7 321.8 62C318.6 56.6 313.3 50.1 307.6 44.4C301.9 38.7 295.4 33.4 290 30.2C285.3 27.3 277.8 23.6 273.2 22C268.7 20.3 260.8 18.3 255.7 17.4C249.1 16.2 243.4 15.9 235.5 16.3C229.4 16.6 221.1 17.8 217 18.8C212.9 19.9 206.1 22.2 202 23.9C197.9 25.6 190.2 30 185 33.5C179.8 37.1 174.6 40 173.5 40C172.4 40 170.3 39.2 168.7 38C166.4 36.3 166 35.4 166.2 31.8C166.5 28 167 27.1 172.5 22.7C175.8 20 183.7 15.3 190 12.1C196.6 8.89996 205.3 5.49996 210.5 4.09996C215.4 2.89996 220.8 1.49996 222.5 0.999964C224.1 0.599964 231.7 0.199964 239.2 0.0999638H239.3ZM444.6 202.3C452.2 202.6 454.5 203.1 459.5 205.6C463 207.3 467.5 210.8 470.7 214.3C475.1 219 476.5 221.3 478.2 227.3C479.8 232.7 480.2 236 479.8 240.5C479.5 243.8 478.5 249 477.5 252C476.5 255 472 262.8 467.6 269.3C463.2 275.8 446.1 300.5 429.6 324.3C412.2 349.4 396.9 370.4 393.1 374.4C389.5 378.2 384.1 383.1 381.1 385.3C378.1 387.6 372.4 390.9 368.6 392.7C364.7 394.5 358.9 396.7 355.6 397.7C350.2 399.3 341.8 399.5 270.6 400C199.3 400.4 191.3 400.7 188.1 402.2C186.2 403.1 183.5 404.8 179.6 407.9L185.8 414.4C190.9 419.7 192.1 421.6 192.1 424.3C192.1 427.2 189.4 430.2 165.8 453.8C141.5 478 139.3 480 136.1 480C132.8 480 128.6 476 66.4001 413.7C3.9001 351.3 0.100098 347.3 0.100098 344C0.100098 340.8 2.0001 338.6 26.4001 314.3C50.7001 290 52.9001 288 56.1001 288C59.4001 288 63.0001 291.5 168.6 396.9L172.1 393.9C174 392.3 177.8 389.9 180.6 388.6C183.3 387.3 188 385.7 190.8 385.1C194.4 384.4 219.4 384 269.3 384C329.9 384 343.8 383.7 349.6 382.5C353.4 381.7 360 379.4 364.1 377.3C369.6 374.6 373.6 371.6 379.1 366.1C384.5 360.6 393.8 348.1 411.8 322C425.6 301.9 442.4 277.6 449.1 268C457.7 255.5 461.7 248.9 462.8 245C463.7 241.7 464.1 237.7 463.8 235C463.5 232.4 462 228.8 460.4 226.6C458.9 224.4 455.6 221.5 453.1 220.2C450 218.6 446.9 217.8 443.1 217.8C439.9 217.8 436.2 218.5 434.1 219.5C432.2 220.4 418.9 232.9 404.6 247.1C380.5 271.1 378.3 273 375.1 273C372.8 273 370.8 272.2 369.3 270.7C367.8 269.2 367.1 267.4 367.1 265C367.1 261.8 369.1 259.5 392.4 236.2C406.2 222.3 419.8 209.5 422.6 207.7C425.3 206 429.4 204 431.6 203.3C434 202.5 439.2 202.1 444.6 202.3ZM19.6001 344L136.1 460.5L172.6 424C82.7001 334.1 56.4001 308 56.1001 308C55.8001 308 47.5001 316.1 37.6001 326L19.6001 344ZM240 32C242 32 244 32.9 245.6 34.5C247.9 36.8 248.1 37.7 248.1 57L252.8 59C255.5 60.1 259.7 63.1 262.3 65.7C264.9 68.4 268 72.7 269.2 75.5C270.4 78.2 271.6 82.7 271.9 85.5C272.4 89.9 272.1 90.8 269.8 93.2C268.2 94.9 266.1 96 264.4 96C262.8 96.1 260.5 95.3 259.2 94.3C257.6 93 256.6 90.9 256 87C255.5 84 254.3 80.4 253.4 79.1C252.4 77.8 250.3 75.8 248.8 74.6C246.6 73 244.5 72.5 240.1 72.5C235.8 72.5 233.5 73 231.5 74.5C230 75.6 227.9 77.8 226.7 79.3C225.1 81.4 224.6 83.6 224.6 88C224.6 92.4 225.1 94.5 226.7 96.7C227.9 98.2 229.9 100.3 231.2 101.3C232.6 102.3 236.8 103.5 241.1 104.1C245.2 104.6 250.8 106.1 253.6 107.3C256.3 108.6 260.4 111.4 262.5 113.6C264.7 115.7 267.6 120 269 123C271 127.4 271.6 130.1 271.6 136C271.6 141.9 271 144.6 269 149C267.6 152 264.7 156.3 262.5 158.4C260.4 160.6 256.2 163.4 248.1 167V177C248.1 186.3 247.9 187.2 245.6 189.5C244.1 191.1 242.1 192 240.1 192C238.2 192 236.2 191.1 234.6 189.5C232.3 187.2 232.1 186.3 232.1 167L226.8 164.7C224 163.4 219.9 160.7 217.8 158.7C215.8 156.7 212.9 152.6 211.5 149.7C210 146.9 208.6 142 208.3 139C207.8 134 208 133.2 210.4 130.7C212 129.1 214.1 128 215.8 128C217.3 127.9 219.6 128.7 220.9 129.7C222.6 131 223.5 133.1 224.2 137C224.7 140 225.9 143.6 226.9 145C228 146.4 230 148.4 231.5 149.5C233.5 151 235.8 151.5 240.1 151.5C244.4 151.5 246.7 151 248.6 149.5C250.1 148.4 252.3 146.2 253.5 144.7C255.1 142.5 255.6 140.4 255.6 136C255.6 131.7 255.1 129.4 253.6 127.4C252.5 126 250.5 123.9 249.1 122.8C247.5 121.6 243.9 120.6 239.1 120C235 119.6 229.6 118.3 227.1 117.1C224.6 116 221 113.7 219.1 112.2C217.2 110.6 214 106.4 212.1 102.9C209 97.1 208.7 95.7 208.6 88.5C208.6 82.2 209.1 79.4 210.9 75.5C212.2 72.7 215.3 68.4 217.9 65.7C220.5 63.1 224.7 60.1 232.1 57V46.9C232.2 37.7 232.4 36.7 234.6 34.4C236.1 32.9 238.1 32 240 32ZM329.6 256.5L336.1 259.5C339.7 261.2 344.8 264.6 347.4 267C350.6 269.9 353.6 274.1 355.9 278.9C359.4 285.9 359.6 287 359.6 296C359.6 305 359.4 306 355.9 313C353.6 317.9 350.6 322.1 347.4 324.9C344.8 327.4 339.7 330.8 329.6 335.5L229.1 336L226.6 333.5C225 331.9 224.1 329.9 224.1 328C224.1 326.2 225 324 229 320H276.3C315.2 320 324.4 319.8 328.1 318.5C330.7 317.7 334.4 315.3 336.9 312.8C339.4 310.3 341.8 306.6 342.6 304C343.5 301.5 344.1 297.9 344.1 296C344.1 294.1 343.5 290.5 342.6 288C341.8 285.4 339.4 281.7 336.9 279.2C334.4 276.7 330.7 274.3 328.1 273.4C324.3 272.2 310.2 272 234.3 272C158.5 272 143.9 272.2 137.3 273.5C133.1 274.4 126.4 276.6 122.6 278.5C118.7 280.4 112.2 284.8 108.1 288.4C104 292 99.4001 295.6 97.8001 296.5C95.7001 297.6 94.4001 297.8 92.1001 297C90.4001 296.4 88.6001 295.1 88.1001 294C87.5001 292.9 87.1001 290.5 87.1001 288.7C87.2001 286.2 88.1001 284.6 91.4001 281.7C93.7001 279.6 98.1001 275.9 101.1 273.6C104.1 271.2 109.1 267.9 112.1 266.2C115.1 264.5 120.3 262.1 123.6 260.9C126.9 259.8 132.7 258.2 136.6 257.5C142.2 256.4 162.6 256.2 329.6 256.5Z" fill="black"/>
</g>
<defs>
<clipPath id="clip0_5617_2470">
<rect width="480" height="480" fill="white"/>
</clipPath>
</defs>
</svg>
